<svg xmlns="http://www.w3.org/2000/svg" width="22.957" height="24" viewBox="0 0 22.957 24">
  <path id="calendar-alt" d="M9.174,4V5.043H5V28H27.957V5.043H23.783V4H21.7V5.043H11.261V4ZM7.087,7.13H9.174V8.174h2.087V7.13H21.7V8.174h2.087V7.13H25.87V9.217H7.087Zm0,4.174H25.87V25.913H7.087Zm6.261,2.087v2.087h2.087V13.391Zm4.174,0v2.087h2.087V13.391Zm4.174,0v2.087h2.087V13.391ZM9.174,17.565v2.087h2.087V17.565Zm4.174,0v2.087h2.087V17.565Zm4.174,0v2.087h2.087V17.565Zm4.174,0v2.087h2.087V17.565ZM9.174,21.739v2.087h2.087V21.739Zm4.174,0v2.087h2.087V21.739Zm4.174,0v2.087h2.087V21.739Z" transform="translate(-5 -4)" fill="#fff"/>
</svg>
