<?xml version="1.0" encoding="utf-8"?>
<!-- Generator: Adobe Illustrator 23.0.6, SVG Export Plug-In . SVG Version: 6.00 Build 0)  -->
<svg version="1.1" id="Layer_1" xmlns="http://www.w3.org/2000/svg" xmlns:xlink="http://www.w3.org/1999/xlink" x="0px" y="0px"
	 viewBox="0 0 2637.8 565.7" style="enable-background:new 0 0 2637.8 565.7;" xml:space="preserve">
<style type="text/css">
	.st0{fill:#0E90D0;}
	.st1{fill:#014E72;}
</style>
<title>CodeClouds</title>
<path class="st0" d="M253.2,1.2c0,0-67.6,22.4-111.6,88.8s-45.9,136.4-37.3,171.8c9,37.1,34.7,87.4,99.8,102.6
	c19.4,4.5,53.7,4.7,83-12.7c28.6-17,36.4-39,67.1-52c21.8-9.2,51.2-15.1,90.5,1c0,0-26.5,96.6-130.3,136.4S99,438.9,44.1,360.9
	C15.2,319.9-0.2,274.2,0,224.7c0.3-48,15.7-94.7,44.1-133.5C101.5,13.7,183.6-4.6,253.2,1.2z"/>
<path class="st0" d="M299.9,109.8c5.3,4.3,10.4,9,15.1,13.9c6.2,6.7,21,26.1,50.9,35.7c22.7,7.3,50.8,7.1,71.6-0.7
	c0,0-15.6-32.3-50-48.1S317.2,101.7,299.9,109.8z"/>
<path class="st1" d="M270.9,343.1c0,0-59.5-40.2-55.6-126.8c2.1-46.8,29.1-90.8,62.2-111.7c20.3-12.6,43.8-19,67.7-18.4
	c50.4,1.3,84,28,106.2,66.5c0,0,44.4-19.7,43.2-66.8c-0.4-17.3-11.1-39.5-34.9-55.4C438.3,16.1,398.2,1.9,354.9,0.3
	C313.3-1.3,267.4,5,217.5,36.2c-25.6,16-49,39.5-66.8,67.5c-23.2,36.3-35.6,78.5-35.7,121.6c0,25.9,7.8,56.4,24.9,79.7
	C188.6,371.4,260.4,349.7,270.9,343.1z"/>
<path class="st1" d="M319.2,451.6c0,0,73.8,10.8,138.1-27.8c32.4-19.5,37.4-55,32.4-73c-2.8-10.2-11.2-29.9-31.6-42.5
	c0,0-13.4,40.9-40.5,72.3S361.7,434.8,319.2,451.6z"/>
<path class="st0" d="M1369.9,501c9.7,9.2,23.5,16,36,16c6.6,0,12.8-1.8,17-5.1c4.5-3.7,7-9.2,6.9-15c0-11.5-9.9-16-23.4-21.9
	c-15.3-6.8-28-13.3-28-30.9c-0.1-9.9,4.2-19.3,11.7-25.8c7.2-6.3,16.8-9.7,27.8-9.7c12.4,0.1,24.4,4,34.6,11l-3,16.6
	c-9.4-7.7-21.6-13.2-32.9-13.2c-5.9,0-11.7,1.5-16,4.9c-4.2,3.5-6.7,8.7-6.6,14.1c0,11.2,9.4,14.7,23.4,21.1c16,7.2,28,13.8,28,31.6
	c0.2,11.1-5,21.7-13.8,28.5c-7.2,5.4-16.5,8.1-26.7,8.1c-13.8,0-27.2-4.7-38-13.2L1369.9,501z"/>
<path class="st0" d="M1472.8,448.5h14.8l-14.3,81h-14.8L1472.8,448.5z M1485.6,410.3c5.4-0.1,9.9,4.2,10,9.7c0,0.1,0,0.1,0,0.2
	c-0.1,6.1-5.1,10.9-11.1,10.9c0,0,0,0-0.1,0c-5.4,0.1-9.8-4.2-9.9-9.5c0-0.1,0-0.2,0-0.4c0-6,4.9-10.9,10.9-10.9
	C1485.5,410.3,1485.6,410.3,1485.6,410.3z"/>
<path class="st0" d="M1510.5,448.5h14.8l-1.8,10l0.3,0.2c7.4-6.4,17.4-12,28.3-12c10.7,0,19.1,5.4,22.2,14.7
	c11.2-9.7,22.1-14.6,32.6-14.6c14.3,0,24,9,24,23.7c-0.1,3.9-0.5,7.8-1.3,11.7l-8.4,47.4h-14.8l8.2-46.4c0.7-3.1,1-6.3,1.2-9.5
	c0-7.9-4.1-13-13.2-13s-18.1,5.1-27,13.2c-0.2,2.5-0.7,5.6-1.2,8.4l-8.4,47.4h-14.8l8.2-46.4c0.7-3.1,1-6.3,1.2-9.5
	c0-7.9-4.1-13-13.2-13c-9.2,0-18,5.3-26.7,13l-9.9,56h-14.8L1510.5,448.5z"/>
<path class="st0" d="M1669.3,453.4c5.9-4.4,13.1-6.8,20.4-6.8c18.9,0,32.9,14.7,32.9,36.5c0,12.5-4.6,25.7-13.3,34.7
	c-8.2,8.6-19.9,13.3-33.4,13.3c-6.8,0.1-13.5-1.2-19.8-3.8l-0.3,0.2l-6.8,38h-14.8l20.7-117.2h14.8l-0.8,4.8L1669.3,453.4z
	 M1658.3,514c5.8,2.8,12.2,4.2,18.6,4.3c8.4,0.2,16.5-3.3,22.1-9.5c5.9-6.6,8.9-15.8,8.9-24.5c0-15.1-8.6-24.2-21.1-24.2
	c-7.4,0.2-14.5,2.7-20.2,7.2L1658.3,514z"/>
<path class="st0" d="M1754.7,403.7h14.8l-22.2,125.8h-14.8L1754.7,403.7z"/>
<path class="st0" d="M1765.8,565.7l30.1-45.4l-21.2-71.8h16l8.2,28.5c2.6,9,5.3,18.6,7.4,27.2h0.3c5.4-8.9,11.2-18.3,17.1-27.5
	l17.9-28.1h16.1l-75.4,117.2H1765.8z"/>
<path class="st0" d="M1919.7,410.3h32.1c13.8,0,22.9,2.3,29.3,6.7c7.1,4.9,11.2,13,11,21.6c0,13-8.1,24.5-23,29.5v0.3
	c10.7,3.6,18.3,12.3,18.3,24.7c-0.2,10.5-5.1,20.3-13.3,26.7c-7.9,6.1-18.9,9.7-35.7,9.7h-39.7L1919.7,410.3z M1941.2,515.3
	c11.2,0,18.8-2.1,23.9-6.8c4.3-3.9,6.6-9.5,6.6-15.3c0-11.8-9.7-18.9-25.3-18.9h-22.4l-7.2,41L1941.2,515.3z M1951.2,462.3
	c12,0,25.2-5.6,25.2-20.1c0-5.8-2.1-10.2-6.6-13.3c-4.1-3-9.9-4.5-19.8-4.5h-17.3l-6.8,37.9H1951.2z"/>
<path class="st0" d="M2012.5,448.5h14.8l-2.5,13.8l0.3,0.2c6.9-8.7,19.4-14.6,29.8-14.6c1.7,0,3.4,0.2,5.1,0.5l-2.5,14.3
	c-1.6-0.2-3.3-0.3-4.9-0.3c-11.5,0-22.6,6.4-30.8,16.8l-8.9,50.4h-14.8L2012.5,448.5z"/>
<path class="st0" d="M2078.3,448.5h14.8l-14.3,81H2064L2078.3,448.5z M2091.2,410.3c5.4-0.1,9.9,4.2,10,9.7c0,0.1,0,0.1,0,0.2
	c-0.1,6.1-5.1,10.9-11.1,10.9c0,0,0,0-0.1,0c-5.4,0.1-9.8-4.2-9.9-9.5c0-0.1,0-0.2,0-0.3c0-6,4.9-10.9,10.9-10.9
	C2091.1,410.3,2091.1,410.3,2091.2,410.3L2091.2,410.3z"/>
<path class="st0" d="M2127.2,403.7h14.8l-22.2,125.8H2105L2127.2,403.7z"/>
<path class="st0" d="M2164.9,403.7h14.8l-22.2,125.8h-14.8L2164.9,403.7z"/>
<path class="st0" d="M2198,448.5h14.8l-14.3,81h-14.8L2198,448.5z M2210.8,410.3c5.4-0.1,9.9,4.2,10,9.7c0,0.1,0,0.1,0,0.2
	c-0.1,6.1-5.1,10.9-11.1,10.9c0,0,0,0-0.1,0c-5.4,0.1-9.8-4.2-9.9-9.5c0-0.1,0-0.2,0-0.3c0-6,4.9-10.9,10.9-10.9
	C2210.7,410.3,2210.8,410.3,2210.8,410.3z"/>
<path class="st0" d="M2294.3,529.5h-14.8l1.3-7.1l-0.3-0.2c-5.8,4.8-13.2,9.1-23,9.1c-17.6,0-31.4-13.7-31.4-34.7
	c0-12.2,4.6-26,14.3-36c9.5-9.9,22.1-13.8,33.9-13.8s22.9,4.1,33.1,8.9L2294.3,529.5z M2291,464.1c-5.7-2.7-11.9-4.2-18.3-4.3
	c-8.7-0.2-17.1,3.5-22.7,10.2c-6,7.1-9.2,16.1-9.2,25.3c0,14.7,8.7,22.9,19.6,22.9c8.1,0,16.3-4.4,23.2-11.7L2291,464.1z"/>
<path class="st0" d="M2331.5,448.5h14.8l-1.8,9.9l0.3,0.2c8.2-6.6,18.1-11.9,29.1-11.9c14.3,0,24.2,9.2,24.2,24.9
	c-0.1,3.8-0.5,7.6-1.3,11.3l-8.2,46.6h-14.8l8.1-45.6c0.7-3.2,1.1-6.4,1.1-9.7c0-8.2-3.8-13.7-13-13.7c-9.4,0-19.4,5.8-28.1,12.7
	l-9.9,56.3h-14.8L2331.5,448.5z"/>
<path class="st0" d="M2452.6,530.1c-3.1,0.8-6.2,1.2-9.4,1.2c-13.5,0-24.7-7.1-24.7-22.9c0.1-3.9,0.4-7.7,1.1-11.5l6.2-35h-14.6
	l2.3-13.3h14.8l3.9-22.9l15-0.8l-4.1,23.7h23.9l-2.3,13.3h-24l-6.1,34.6c-0.6,3.3-1,6.6-1.2,9.9c0,7.1,3.8,11.5,12.2,11.5
	c3.2-0.1,6.3-0.6,9.4-1.5L2452.6,530.1z"/>
<path class="st0" d="M2481.6,510.5c5.4-0.1,9.9,4.2,10,9.7c0,0.1,0,0.1,0,0.2c-0.1,6.1-5.1,10.9-11.1,10.9c0,0,0,0-0.1,0
	c-5.4,0.1-9.8-4.2-9.9-9.5c0-0.1,0-0.2,0-0.4c0-6,4.9-10.9,10.9-10.9C2481.5,510.5,2481.5,510.5,2481.6,510.5z M2492,410.3h17.1
	l-18.6,82.6h-9.2L2492,410.3z"/>
<path class="st0" d="M580.5,226.6c0-69.3,48.2-111.9,103.9-111.9c26.4,0,51.8,7.9,67.9,21.4v49.3c-15.4-14.6-36-25-59.2-25
	c-32.5,0-57.2,23.2-57.2,66.1c0,42.5,24.8,66.1,57.2,66.1c23.2,0,43.8-10.4,59.2-25v49.3c-16.1,13.6-41.5,21.4-67.9,21.4
	C628.8,338.5,580.5,296,580.5,226.6z"/>
<path class="st0" d="M769.3,226.6c0-65.8,47.9-113.3,107.1-113.3c58.9,0,106.5,47.5,106.5,113.3s-47.6,113.3-106.5,113.3
	C817.2,339.9,769.3,292.4,769.3,226.6z M927.6,226.6c0-41.1-19-67.9-51.1-67.9c-32.5,0-51.8,26.8-51.8,67.9s19.3,67.9,51.8,67.9
	C908.6,294.5,927.6,267.7,927.6,226.6z"/>
<path class="st0" d="M1009.3,119.4h75.2c79.4,0,111.9,48.2,111.9,107.2s-32.5,107.2-111.9,107.2h-75.3L1009.3,119.4z M1080.3,289.2
	c43.4,0,63-19.6,63-62.5s-19.6-62.5-63-62.5h-19v125.1H1080.3z"/>
<path class="st0" d="M1222.5,119.4h134.1V163h-82v36.1h65.9v43.2h-65.9v47.9h82v43.6h-134.1V119.4z"/>
<path class="st1" d="M1366.9,226.6c0-69.3,48.2-111.9,103.9-111.9c26.4,0,51.8,7.9,67.9,21.4v49.3c-15.4-14.6-36-25-59.2-25
	c-32.5,0-57.2,23.2-57.2,66.1c0,42.5,24.8,66.1,57.2,66.1c23.2,0,43.8-10.4,59.2-25v49.3c-16.1,13.6-41.5,21.4-67.9,21.4
	C1415.2,338.5,1366.9,296,1366.9,226.6z"/>
<path class="st1" d="M1570.2,119.4h52.1v170.8h82v43.6h-134.1V119.4z"/>
<path class="st1" d="M1708.2,226.6c0-65.8,47.9-113.3,107.1-113.3c58.9,0,106.5,47.5,106.5,113.3s-47.6,113.3-106.5,113.3
	C1756.1,339.9,1708.2,292.4,1708.2,226.6z M1866.4,226.6c0-41.1-19-67.9-51.1-67.9c-32.5,0-51.8,26.8-51.8,67.9s19.3,67.9,51.8,67.9
	C1847.5,294.5,1866.5,267.7,1866.4,226.6L1866.4,226.6z"/>
<path class="st1" d="M1945.9,234.9V119.4h52.7v112.2c0,37.9,13.5,58.3,41.2,58.3c28,0,41.5-20.4,41.5-58.3V119.4h51.2v115.4
	c0,72.5-41.2,105.1-93.3,105.1C1987.4,339.9,1945.9,307.4,1945.9,234.9z"/>
<path class="st1" d="M2162,119.4h75.3c79.4,0,111.9,48.2,111.9,107.2s-32.5,107.2-111.9,107.2H2162V119.4z M2233.1,289.2
	c43.4,0,63-19.6,63-62.5s-19.6-62.5-63-62.5h-19v125.1H2233.1z"/>
<path class="st1" d="M2360.8,310.3l11.6-42.2c14.5,13.6,35.4,28.6,60.8,28.6c15.8,0,28-6.8,28-21.8c0-13.9-8.4-18.9-36-26.8
	c-44.1-11.4-59.2-37.5-59.2-69.3c0-38.9,27.7-64.3,70.8-64.3c22.9,0.2,45.2,7.8,63.4,21.8l-10.6,38.6c-14.5-10-34.7-18.6-53.4-18.6
	c-13.8,0-22.5,6.4-22.5,17.1c0,10,5.8,15.7,27.7,21.8c48.2,12.5,67.9,35,67.9,73.6c0,50.4-36.7,69.3-75.9,69.3
	C2400,338.1,2375.9,324.2,2360.8,310.3z"/>
<path class="st1" d="M2549.5,125.6v43.2h-14.4v-43.2h-17.3v-10.7h49.2v10.7L2549.5,125.6z M2625.2,168.9v-29.5
	c0-1.3,0.2-5.5,0.2-5.8c-0.5,2-1.1,3.9-1.8,5.8l-11.8,29.5h-9.2l-11.7-29.5c-0.8-1.9-1.4-3.8-1.9-5.8c0,0.3,0.2,4.5,0.2,5.8v29.5
	h-12.3V115h15.9l14.9,36.7l14.6-36.7h15.7v53.9H2625.2z"/>
</svg>
