<?xml version="1.0" encoding="utf-8"?>
<!-- Generator: Adobe Illustrator 24.0.1, SVG Export Plug-In . SVG Version: 6.00 Build 0)  -->
<svg version="1.1" id="Layer_1" xmlns="http://www.w3.org/2000/svg" xmlns:xlink="http://www.w3.org/1999/xlink" x="0px" y="0px"
	 viewBox="0 0 70.9 100" style="enable-background:new 0 0 70.9 100;" xml:space="preserve">
<style type="text/css">
	.st0{fill:#69737F;}
</style>
<title>glassdoor-glyph.svg</title>
<path class="st0" d="M56.8,85.7H0C0,93.6,6.3,100,14.2,100c0,0,0,0,0,0h42.6c7.9,0,14.2-6.4,14.2-14.3V27.1c0-0.3-0.2-0.5-0.5-0.5
	H57.3c-0.3,0-0.5,0.2-0.5,0.5V85.7z M56.8,0C64.6,0,71,6.4,70.9,14.3c0,0,0,0,0,0H14.2V73c0,0.3-0.2,0.5-0.5,0.5H0.5
	C0.2,73.5,0,73.2,0,73V14.3C0,6.4,6.3,0,14.2,0c0,0,0,0,0,0H56.8z"/>
</svg>
