<?xml version="1.0" encoding="utf-8"?>
<!-- Generator: Adobe Illustrator 24.1.0, SVG Export Plug-In . SVG Version: 6.00 Build 0)  -->
<svg version="1.1" id="Layer_1" xmlns="http://www.w3.org/2000/svg" xmlns:xlink="http://www.w3.org/1999/xlink" x="0px" y="0px"
	 viewBox="0 0 49.6 49.6" style="enable-background:new 0 0 49.6 49.6;" xml:space="preserve">
<style type="text/css">
	.st0{fill:#69737F;}
</style>
<g>
	<path class="st0" d="M34.7,20.9c-2.8,0-3.7,2.7-3.9,4.3v0.1l-0.4,1.5c1.2,1,2.6,1.6,4.2,1.7c2.1-0.1,3.8-1.8,3.9-3.9
		C38.5,22.5,36.8,20.9,34.7,20.9z"/>
	<path class="st0" d="M24.8,0C11.1,0,0,11.1,0,24.8s11.1,24.8,24.8,24.8s24.8-11.1,24.8-24.8l0,0C49.6,11.1,38.5,0,24.8,0z
		 M34.7,32.4c-1.8,0-3.6-0.5-5.2-1.5l-1.7,8h-3.9l2.4-11c-1-1.4-1.9-2.9-2.7-4.5v1.7c0,4-3.3,7.3-7.3,7.3c-4,0-7.3-3.3-7.3-7.3
		c0,0,0,0,0,0v-10h3.8v10c0,2,1.6,3.6,3.6,3.6s3.6-1.6,3.6-3.6v-10h3.8c0.9,2.9,2.2,5.6,3.8,8.2c1-3.8,3.8-6.1,7.3-6.1
		c4.1,0,7.5,3.4,7.5,7.5C42.3,28.9,38.9,32.3,34.7,32.4z"/>
</g>
</svg>
