<?xml version="1.0" encoding="utf-8"?>
<!-- Generator: Adobe Illustrator 26.0.3, SVG Export Plug-In . SVG Version: 6.00 Build 0)  -->
<svg version="1.1" id="Layer_1" xmlns="http://www.w3.org/2000/svg" xmlns:xlink="http://www.w3.org/1999/xlink" x="0px" y="0px"
	 viewBox="0 0 1479.7 505.1" style="enable-background:new 0 0 1479.7 505.1;" xml:space="preserve">
<style type="text/css">
	.st0{fill:#907843;}
</style>
<rect x="633.4" y="253.4" class="st0" width="50.7" height="50.7"/>
<rect x="633.4" y="178.3" class="st0" width="50.7" height="50.7"/>
<rect x="633.4" y="103.3" class="st0" width="50.7" height="50.6"/>
<rect x="714.5" y="253.4" class="st0" width="50.7" height="50.7"/>
<rect x="714.5" y="178.3" class="st0" width="50.7" height="50.7"/>
<rect x="795.7" y="253.4" class="st0" width="50.7" height="50.7"/>
<rect x="795.7" y="178.3" class="st0" width="50.7" height="50.7"/>
<rect x="795.7" y="103.3" class="st0" width="50.7" height="50.6"/>
<path class="st0" d="M633.7,78.6L658.8,0l25.1,78.6H633.7z"/>
<path class="st0" d="M796.2,78.6L821.2,0l25.1,78.6H796.2z"/>
<path class="st0" d="M85.1,500.5c-12.3,3-24.9,4.6-37.6,4.7C16.2,505.1,0,488.7,0,457.6c0-35.5,13.4-53.6,50.4-53.6
	c12.2,0,22.8,1.8,34.6,4.2v24.2H75c-2.7-17.7-4.5-22.3-24.6-22.3c-25.6,0-27.8,28.1-27.8,47.5c0,19.8,5.2,41.6,29,41.6
	c17.7,0,22.2-8.1,22.9-24.3h10.6L85.1,500.5L85.1,500.5z"/>
<path class="st0" d="M110,423.1c-0.3-8.6,2-11.5-12.4-11.5v-5.8c6.6,0.1,14.7,0.1,22.8,0.3c8.1-0.1,16.1-0.1,22.8-0.3v5.8
	c-13.7,0-12.4,2.4-12.4,11.5v26.1h38.9v-26.1c-0.3-8.6,2-11.5-12.4-11.5v-5.8c6.6,0.1,14.7,0.1,22.8,0.3c8.1-0.1,16.1-0.1,22.8-0.3
	v5.8c-13.7,0-12.4,2.4-12.4,11.5v63.6c0,9-1.3,11.5,12.4,11.5v5.8c-6.6-0.1-14.7-0.1-22.8-0.3c-8.1,0.1-16.1,0.1-22.8,0.3v-5.8
	c14.4,0,12.2-2.8,12.4-11.5v-30.5h-38.9v30.5c0,9-1.3,11.5,12.4,11.5v5.8c-6.7-0.1-14.7-0.1-22.8-0.3c-8.1,0.1-16.1,0.1-22.8,0.3
	v-5.8c14.4,0,12.2-2.8,12.4-11.5L110,423.1z"/>
<path class="st0" d="M272.5,457.8l-12.2-34.2l-11.9,34.2H272.5z M272.5,372.1l17.4,24.9h-8.1L266,383.1L250,397h-7.8l17.1-24.9
	L272.5,372.1z M246.2,464.3l-6.7,21.9c-0.7,2-1.1,4-1.4,6.1c-0.3,5.2,8.3,5.8,12.3,5.9v5.8c-6.5-0.1-13-0.1-19.5-0.3
	c-5.9,0.1-11.7,0.1-17.7,0.3v-5.8c7.5-0.1,10-2,11.7-3.5c2.7-2.5,6.5-11.4,10.6-22.8c8.1-22.2,16.8-43.4,24.5-66
	c2.5,0.1,5.1,0.3,7.6,0.3s4.9-0.1,7.5-0.3l26.4,74.6c3.7,10,5,17.7,16.4,17.7v5.8c-7.5-0.1-15.5-0.1-23.6-0.3
	c-8.1,0.1-16.1,0.1-23.2,0.3v-5.8c3.2-0.3,11.9-0.4,12.4-5.1c0.3-2.1-1.1-5.6-1.7-7.5l-7.1-21.3L246.2,464.3L246.2,464.3z"/>
<path class="st0" d="M348.7,498.2c15.7,0,14.5-1.4,14.5-11.5v-74.3h-6.1c-15.7,0-15.8,3.2-18,19.2h-10.3v-25.4h89.3v25.4h-10.3
	c-2.1-16-2.3-19.2-18-19.2h-6.1v74.3c0,10-1.1,11.5,14.6,11.5v5.8c-8.8-0.1-16.8-0.1-24.9-0.3c-8.1,0.1-16.1,0.1-24.9,0.3
	L348.7,498.2L348.7,498.2z"/>
<path class="st0" d="M441.1,423.3c-0.3-8.3,2-11.6-11.7-11.6v-5.8c5.9,0.1,14,0.3,22,0.3c18.4,0,36.9-0.1,55.3-0.3v23.2h-10.3
	c-1.7-15-1.7-16.7-20.8-16.7h-13.9v36.2h8.6c8.5,0,10.2-5.7,10.6-13.6h7.8c-0.1,5.5-0.1,11-0.3,16.5c0.1,5.7,0.1,11.2,0.3,16.7H481
	c-0.7-7.6-1.8-13.3-10.6-13.7h-8.6v43h15.7c16.8,0,17.2-4.7,18.9-20.6h10.3V504c-18.4-0.1-36.9-0.3-55.3-0.3c-8.1,0-16.1,0.1-22,0.3
	v-5.8c13.7,0,11.4-3.3,11.7-11.5V423.3z"/>
<path class="st0" d="M580,457.8l-12.2-34.2L556,457.8H580L580,457.8z M553.7,464.3l-6.6,21.9c-0.7,2-1.1,4-1.4,6.1
	c-0.3,5.2,8.3,5.8,12.3,5.9v5.8c-6.5-0.1-13-0.1-19.5-0.3c-5.9,0.1-11.7,0.1-17.7,0.3v-5.8c7.5-0.1,10-2,11.7-3.5
	c2.7-2.5,6.5-11.4,10.6-22.8c8-22.2,16.8-43.4,24.5-66c2.5,0.1,5.1,0.3,7.6,0.3s5-0.1,7.5-0.3l26.4,74.6c3.7,10,5,17.7,16.4,17.7
	v5.8c-7.5-0.1-15.6-0.1-23.6-0.3c-8,0.1-16.1,0.1-23.2,0.3v-5.8c3.2-0.3,11.9-0.4,12.4-5.1c0.3-2.1-1.1-5.6-1.7-7.5l-7.1-21.3
	L553.7,464.3L553.7,464.3z"/>
<path class="st0" d="M649,423c-0.3-8.5,2-11.3-12.4-11.3v-5.8c6.6,0.1,14.7,0.1,22.7,0.3c8.1-0.1,16.1-0.1,22.8-0.3v5.8
	c-13.7,0-12.4,2.4-12.4,11.3v50.3c-0.4,16.8,5.7,26.2,23.8,26.2c17.7,0,28-9.5,28-27.1V423c0-10.5-0.9-11.3-14.3-11.3v-5.8
	c5.9,0.1,11.7,0.1,17.7,0.3c5.8-0.1,11.4-0.1,17.2-0.3v5.8c-12.7,0-12.7,1.8-12.7,11.3v50.2c0,23.6-16,31.9-37.9,31.9
	c-26.4,0-42.4-4.2-42.4-32.9V423z"/>
<path class="st0" d="M828.8,497.3c2.3,0.3,4.5,0.4,6.8,0.4c27.8,0,32.8-18.4,32.8-42.8c0-20.8-2.6-41.3-27-43.1
	c-4.2-0.2-8.4,0.1-12.6,0.7L828.8,497.3L828.8,497.3z M808.1,423.1c-0.3-7.9,2-11.5-11.2-11.5v-5.8c5.4,0.1,13.4,0.1,21.5,0.3
	c11.2-0.1,22.2-0.1,33.4-0.3c31.1,0,39.1,18.2,39.1,47.1c0,32.5-8.8,51-43.1,51c-9.7-0.1-19.6-0.1-29.4-0.3
	c-8,0.1-16.1,0.1-21.5,0.3v-5.8c13.1,0,10.9-3.5,11.2-11.5V423.1z"/>
<path class="st0" d="M912,442.6c6.6-4,11.7-8.8,12.9-16.5c-7.5,3.4-12.9-4.2-12.9-9.8c0-6.9,2.5-12.3,10.3-12.3
	c7.9,0,10.9,7.5,10.9,14.3c0,12.6-7.1,23-18.2,28.7L912,442.6L912,442.6z"/>
<path class="st0" d="M984.9,486.7c0.3,9.3-2,11.5,13.8,11.5v5.8c-8.1-0.1-16.1-0.1-48.3,0v-5.8c15.8,0,13.6-2.1,13.8-11.5v-63.6
	c-0.3-9.3,2-11.5-13.8-11.5v-5.8c8.1,0.1,16.1,0.1,24.2,0.3c8-0.1,16.1-0.1,24.2-0.3v5.8c-15.8,0-13.6,2.1-13.8,11.5L984.9,486.7
	L984.9,486.7z"/>
<path class="st0" d="M1024.9,429.4c-1.7-4.7-4.4-13.6-8.8-16.1c-1.8-1.4-4.2-1.6-6.2-1.6v-5.8c6.2,0.1,14.1,0.1,22,0.3
	c7.9-0.1,15.7-0.1,22.6-0.3v5.8c-3.7,0.4-11.9,0.6-11.9,5.8c0,3,1.1,6.2,2.1,9l20.6,58.8l15.8-48.3c2.8-8.6,6.2-17.5,5.8-20.9
	c-0.6-4.1-9.5-4.2-12.2-4.4v-5.8c6.5,0.1,12.9,0.1,19.2,0.3c5.8-0.1,11.5-0.1,13.6-0.3v5.7c-7.6,0.1-8.9,4.1-11.2,8.2
	s-3.9,9.9-7.1,18.2l-23.9,66c-2.5-0.1-4.9-0.1-7.5-0.3c-2.4,0.1-4.9,0.1-7.3,0.3L1024.9,429.4L1024.9,429.4z"/>
<path class="st0" d="M1196.9,454.5c0-26-4-44.5-26.6-44.5s-26.6,18.5-26.6,44.5s4,44.5,26.6,44.7
	C1193,499,1196.9,480.5,1196.9,454.5z M1120.9,454.5c0.1-34.2,14.4-50.5,49.5-50.5c35,0,49.3,16.3,49.5,50.5
	c-0.1,34.3-14.3,50.6-49.5,50.6S1121,488.9,1120.9,454.5L1120.9,454.5z"/>
<path class="st0" d="M1268.9,486.7c0.3,9.3-2,11.5,13.8,11.5v5.8c-8.1-0.1-16.1-0.1-48.3,0v-5.8c15.8,0,13.6-2.1,13.8-11.5v-63.6
	c-0.3-9.3,2-11.5-13.8-11.5v-5.8c8.1,0.1,16.1,0.1,24.2,0.3c8.1-0.1,16.1-0.1,24.2-0.3v5.8c-15.8,0-13.6,2.1-13.8,11.5L1268.9,486.7
	L1268.9,486.7z"/>
<path class="st0" d="M1328.9,450.8c15,0.6,25.7-4,25.7-20.8c0-11.7-6.5-17.7-18-17.7c-2.5,0-5.1,0.1-7.8,0.3V450.8z M1377.3,490
	c3.8,5.7,5.9,7.2,15.4,8.2v5.8c-6.9-0.1-13.2-0.1-19.2-0.3c-4.2,0.1-8.6,0.1-13.3,0.3c-3-5.9-5.8-11.9-9.5-17.4l-21.8-32.6v32.8
	c0,6.9-2,12.6,13.1,11.5v5.8c-7.3-0.1-15.4-0.1-23.5-0.3c-8.1,0.1-16.1,0.1-22.6,0.3v-5.8c14.8,1.4,12.2-5.9,12.3-11.5v-63.6
	c-0.3-8.6,2-11.5-12.3-11.5v-5.8c6.5,0.1,14.6,0.1,24,0.3c6.8-0.1,13.7-0.1,20.5-0.3c18.2,0.4,36.1-1.3,36.1,22.3
	c0,15.3-10.2,23.3-24.7,24L1377.3,490L1377.3,490z"/>
<path class="st0" d="M1414.2,423.3c-0.3-8.3,2-11.6-11.7-11.6v-5.8c5.9,0.1,14,0.3,22.1,0.3c18.4,0,36.9-0.1,55.3-0.3v23.2h-10.3
	c-1.7-15-1.7-16.7-20.8-16.7h-13.9v36.2h8.6c8.5,0,10.2-5.7,10.6-13.6h7.8c-0.1,5.5-0.1,11-0.3,16.5c0.1,5.7,0.1,11.2,0.3,16.7h-7.8
	c-0.7-7.6-1.8-13.3-10.6-13.7h-8.6v43h15.7c16.8,0,17.2-4.7,18.9-20.6h10.3V504c-18.4-0.1-36.9-0.3-55.3-0.3
	c-8.1,0-16.1,0.1-22.1,0.3v-5.8c13.7,0,11.4-3.3,11.7-11.5L1414.2,423.3z"/>
</svg>
