<svg xmlns="http://www.w3.org/2000/svg" viewBox="0 0 2349.32 587"><defs><style>.cls-1{fill:#414242;}.cls-2{fill:#57ae64;}.cls-3{fill:#474746;}.cls-4{fill:#7bc481;}.cls-5{fill:#444546;}.cls-6{fill:#7cc582;}.cls-7{fill:#454647;}.cls-8{fill:#7dc583;}.cls-9{fill:#48494a;}.cls-10{fill:#414143;}</style></defs><g id="Layer_2" data-name="Layer 2"><g id="Layer_1-2" data-name="Layer 1"><path class="cls-1" d="M91.73,251l1.72,2.37s0,0,0,0Z"/><path class="cls-1" d="M79.57,200.64l.9,4.29.09-.06Z"/><path class="cls-1" d="M175.89,572.56c-1.08-.9-2.92-1.66-3.81-2.72Q115.71,502.94,59.33,436c-2.3-2.71-2.46-4.91-1.2-8,3.76-9.38,7.23-18.89,11.15-29.24L0,392.65a28.35,28.35,0,0,1,2.35-3.06q51.63-49.05,103.33-98l.64-.58,5.35-4.94-.72,2.06-1.76,5.06v0c-3.66,9.16-7.77,18.18-10.23,27.64a150.85,150.85,0,0,0-1.16,72.66l2.93.18,62.45-38.19,1.11-.67,1.86-1.42,2-1,3.9-1.25-9.94,12.42c-19.38,15-38.82,29.84-58.05,45-1.25,1-1.69,4.13-1.26,6,5.26,23.47,12.41,46.42,22.54,68.22,7.07,15.19,15.77,29.61,23.75,44.38,7.88,12.85,15.82,25.67,23.6,38.59A41.64,41.64,0,0,1,175.89,572.56Z"/><path class="cls-1" d="M111,288.09c-.07.38-.15.76-.23,1.13-.49,1.31-1,2.62-1.53,3.93Z"/><path class="cls-1" d="M314.46,425.15c2,4.65,1.63,7.84-1.78,11.93-36.59,43.91-72.9,88.06-109.4,132.05-3,3.58-6.68,6.55-10,9.81,1.38-2.35,2.65-4.77,4.16-7,8-12,16.11-23.89,24-35.94,1.1-1.69,1.22-4,1.8-6.05a3.86,3.86,0,0,0,.72-.67,342.06,342.06,0,0,0,47.67-116.44c.32-1.55-.95-4.12-2.3-5.22q-17.22-14.13-34.78-27.81c-7.9-6.11-16.09-11.83-24.16-17.73-1.71-2.9-3.41-5.78-5.11-8.68l0,0,1.89.15v0l1,.8,5.66,3.28,1.37.86c2.86,1.95,5.64,4,8.59,5.85q24,14.72,48.09,29.35l3.33-.14a47.88,47.88,0,0,0,1.06-4.83c4.28-34.63,2.91-68.49-13.39-100.3l0-.08L261.5,286l2.77,1.31c27.67,26.24,55.43,52.42,83,78.8,7.81,7.49,15,15.6,22.49,23.45a42,42,0,0,1,2.59,3.4l-68.41,4.72C307.68,407.58,310.77,416.49,314.46,425.15Z"/><path class="cls-1" d="M209.72,290.86c-12.63,9-36.24,9.5-44.13,1,7.3.42,14.63,1.3,21.94,1.13C195,292.79,202.43,291.59,209.72,290.86Z"/><path class="cls-1" d="M170.78,258.32c10.06,4.09,22,4,31.42-.44C193.92,269.76,179.8,268.16,170.78,258.32Z"/><path class="cls-2" d="M197.61,378c-9.61,6.89-14.49,6.83-22.38,0Z"/><path class="cls-3" d="M202.18,350.85l2.08,1.57Z"/><path class="cls-3" d="M204.2,352.36c.31,0,.63.07.94.09,0,.3.09.6.14.89l0,0Z"/><path class="cls-1" d="M116.59,166c16.26-.06,33-3.42,48.62,6.93l-48.92-5.41Z"/><path class="cls-1" d="M209,172.7c7.05-6.94,41-10.65,46.83-5.06Z"/><path class="cls-1" d="M211.38,194.36c3.83-1.41,6.58-2.51,9.4-3.41,2.29-.73,4.07-.57,4.85,2.43,2,7.41,7.55,10.2,14.61,10.53a37.1,37.1,0,0,0,23.18-6.36c3.58-2.44,6.71-5.51,10.44-8.64C254.67,180.44,225.56,180.19,211.38,194.36Zm30.2-7a3.44,3.44,0,1,1,3.83,3.41l-.38,0a3.33,3.33,0,0,1-.84-.1A3.46,3.46,0,0,1,241.58,187.39Zm16.67,9.9-.11.05c-2.32.59-4.49,1.94-6.88,2.51a20.67,20.67,0,0,1-7.25.54,57.47,57.47,0,0,0,4.18-4.22,15.63,15.63,0,0,0,3.21-7.4,14.68,14.68,0,0,0,.11-2.22s9.24-.58,15.27,3.43l.91.2-.26.26q.22.17.45.36A30.65,30.65,0,0,1,258.25,197.29Z"/><path class="cls-1" d="M102,188.79c7.27,10.68,24.32,17.51,36.58,14.62,5-1.2,9.1-3.88,10.36-9.07,1.06-4.34,3.44-4.22,6.62-3,1.35.53,2.63,1.26,4.81,2.32C154,181.54,119.55,179.42,102,188.79Zm17,9.57c-.36-.15-.72-.3-1.08-.48l-.56-.26-.76-.37-.27-.14a42.19,42.19,0,0,1-9.31-6.46l.3-.14c-.1-.09-.19-.2-.3-.29l1.59-.32a36,36,0,0,1,15.42-3.25,15.18,15.18,0,0,0,.08,3.53,13.92,13.92,0,0,0,3.06,7,15.2,15.2,0,0,0,4.34,3.69A29.55,29.55,0,0,1,119,198.36Zm11.68-7.69a2.46,2.46,0,0,1-.67.08,2.58,2.58,0,0,1-.68-.08,3.46,3.46,0,1,1,1.35,0Z"/><path class="cls-1" d="M290.29,239.89l-1.35,1.5,1.31-1.5Z"/><path class="cls-1" d="M317,103.81c-5.58-24.26-15.83-46.06-35.1-62.65C253.14,16.39,219.21,4.41,181.89.94,180.3.78,178.74.32,177.16,0h-18c-1.06.29-2.12.64-3.19.84-13.76,2.48-27.71,4.21-41.24,7.63-10,2.54-19.47,7.25-29.17,11l.45.87,19.69-1.69.33,1.73C74.93,34.46,51.18,56.14,35.06,88l17.27-5.43-16.89,38.6.78.62,10.36-7.89-8.92,75.66,1.54.26c3.11-3.26,6.22-6.53,10-10.46.44,2.71.73,4.3,1,5.91,1.6,11,4.83,21.62,11.34,30.7,3.89,5.46,9.17,9.94,13.89,14.81,1.57,1.62,3.6,2.86,5,4.65,3,4,6,8.08,8.92,12.16.75,1,1.5,2.1,2.27,3.14l.21.31,1.74,2.33,3.31,4.48L94,251.08l-1.66-4c-.29-.65-.59-1.29-.89-1.94h0c-1.78-3.86-3.58-7.7-5.22-11.62a8.38,8.38,0,0,0-6.73-5.65,15.21,15.21,0,0,1-7.86-4.91c-9.07-10.77-13.1-23.81-15.55-37.4-.27-1.51.9-3.28,1.41-4.93,1.56.79,3.6,1.19,4.62,2.42,4.27,5.2,8.36,10.55,12.47,15.87l1.55,2,4.79,6.2-.45-2.15-.9-4.29c-.63-2.71-1.27-5.43-1.9-8.14l1.39-1.27c1.74,1.21,4.14,2,5.09,3.69a101.44,101.44,0,0,1,7.41,15.27c4.26,11.65,12.38,18.67,24.48,20.12,9.56,1.16,19.28,1.13,28.93,1.21,8.29.08,15.7-3.16,20.7-9.55,5.29-6.72,9.6-14.28,13.67-21.85,1.54-2.86,2.88-4.06,5.93-3.73,3.25.35,6.86-1.22,8.52,3.78a60.66,60.66,0,0,0,6.69,13.38c8.12,12.79,19.24,20,35.12,18.24a136.11,136.11,0,0,1,15-.56c17.85-.07,26.72-6.3,33.35-23.09a103.84,103.84,0,0,1,6.78-13.34c.85-1.5,2.63-2.46,5-4.6v14c5-6.65,9.36-12.75,14.13-18.5,1.52-1.84,4.17-2.75,6.3-4.08.39,2.64,1.78,5.64,1,7.87-3.63,10.33-7.54,20.6-12,30.58-2.07,4.59-5.9,8.14-11.79,7.84a2.61,2.61,0,0,0-2,1c-2.14,3.87-4.24,7.77-6.35,11.7l-3.58,7.54-1.74,3.66c3.59-3.92,7.11-7.93,10.61-11.94a146.16,146.16,0,0,1,14.5-14.76,47.76,47.76,0,0,0,16.79-32.69C323.58,162.76,323.68,133.05,317,103.81ZM168,211.1c-8.32,14.75-15.31,18-36.09,16.62-3.16-.22-6.32-.44-9.48-.62-17.92-1.08-27.32-11.4-26.68-29.32.08-2,.48-4,.51-6,.1-6,3.61-9.17,9-10.38a44.42,44.42,0,0,1,11.36-1.5c10.65.4,21.3,1.25,31.93,2.07a44.4,44.4,0,0,1,7.85,1.58C172.42,187.86,176.12,196.7,168,211.1Zm109.35-5.87c-1.8,13.15-10.23,20.73-23.48,21.7-4.16.3-8.32.55-12.48.82v.16h-6c-17.73,0-27.1-6.73-32.83-23.57-2.63-7.72-.27-13.79,6.89-17.73a5.39,5.39,0,0,1,.91-.43,118.53,118.53,0,0,1,58.62-4.6c5.21.88,8.5,4.46,8.51,10.2C277.5,196.27,277.94,200.82,277.35,205.23Zm-72.19-23.45c-16.25,4.52-32,2.38-47.92-1.16a162.75,162.75,0,0,0-64.14-.93c-4.7.84-9.25,2.45-13.87,3.71-3.65-13.48,5.46-30.78,17.74-36.14,14.94-6.51,29.38-14.17,44-21.33.54-.26,1.11-.46,2.61.07l-7.45,11.72c11.3-2,22.23-3.17,32.69-6,19.93-5.41,39.59-11.86,59.4-17.73,5.9-1.75,11.9-3.24,17.93-4.43,4.88-1,8.93.69,12.64,4.3,18.17,17.69,31.37,38,35,63.65.26,1.77.39,3.58.58,5.41C264.27,176.43,234.72,173.54,205.16,181.78Z"/><path class="cls-1" d="M148.74,278s12.54,3.26,24.06,2.23c0,0,11.82-.68,14.25,2.57,0,0,6.58-2.22,7.07-2.32,5.35-1.08,11-.12,16.38-.54,3.91-.31,9.41-.13,13-1.94C223.48,278,186,296.94,148.74,278Z"/><path class="cls-1" d="M261.5,286l-4.5,6.21c-5.15,7.11-9.43,14.43-15.5,20.89-13.1,13.91-28.32,23.81-48.16,24.36-5.46.16-10.93-.3-16.4-.46l-1.77-.58c-3-.79-6.14-1.47-9.16-2.39-20.7-6.33-35.56-19.95-47.09-37.74L111.67,286c3.14,2.35,5.7,6.2,8.42,9,2.47,2.58,5.37,4.78,8.08,7.12,6.06,5.24,12.12,10.52,18.62,15.22,24.2,17.52,49.55,17.19,75.28,3.36a98,98,0,0,0,29.17-23.69Z"/><path class="cls-4" d="M193.42,579.06l-3.15,4.9c-2.89,4.53-5,3.82-7.8-.93L152,531.57a10.49,10.49,0,0,1-1.62-9q9.91-69.49,19.82-139a9.83,9.83,0,0,0-.19-5.17c-1-2.43-3.78-3.6-5.45-5.64-2.16-2.63-2.29-6.48-1.17-9.7s3.28-5.94,5.42-8.59c4.46-5.54,9.82-11.5,16.92-11.86,6-.31,11.31,3.51,15.76,7.48,2.93,2.62,5.78,5.47,7.42,9s1.83,8-.39,11.25c-1.62,2.34-4.34,3.87-5.49,6.47-.94,2.14-.64,4.59-.32,6.91l18.76,135.9c.67,4.91,1.33,10-.17,14.72a33.49,33.49,0,0,1-4.07,7.74L199.1,570.24ZM197.61,378H175.23C183.12,384.83,188,384.89,197.61,378Z"/><path class="cls-5" d="M609.17,199.32V128.86h35.42V267.35c-10.18,0-20.26.11-30.33-.15-1.18,0-2.49-1.95-3.43-3.23q-23.77-32.72-47.49-65.49a15.73,15.73,0,0,0-5-4.94V267h-35.4V128.47c10.77,0,21.23-.14,31.68.17,1.49,0,3.22,2.06,4.31,3.56q23.25,31.88,46.32,63.87c.87,1.19,1.81,2.34,2.71,3.52Z"/><path class="cls-6" d="M2212,172.6c7.75-8.89,16.62-15.31,29-15.07s21.65,5.53,28.31,16.41c3.64-3.15,6.88-6.14,10.33-8.88,15.09-12,38.79-9.64,50.15,5.14,6,7.76,7.32,17.09,7.43,26.45.26,22,0,43.95.14,65.92,0,3.54-.84,5.09-4.75,5-8.65-.28-17.32-.33-26,0-4.16.15-5-1.44-5-5.2q.21-26.22,0-52.44a34.38,34.38,0,0,0-1.5-9.76c-1.77-5.79-6-8.69-11.85-8.77-5.61-.07-10.68,3-12.42,8.24a38.16,38.16,0,0,0-1.91,11.21q-.29,25.71,0,51.43c.05,4.2-1.27,5.44-5.43,5.28-8.14-.33-16.31-.31-24.46,0-4.07.14-5.46-1-5.41-5.23.23-17.14.17-34.29,0-51.43a37.6,37.6,0,0,0-1.4-10.31,12.3,12.3,0,0,0-13.21-9.15,13.5,13.5,0,0,0-12.32,11.18A59.58,59.58,0,0,0,2211,212c-.08,16.81-.17,33.63.06,50.44.06,4.09-1.29,5.14-5.14,5-8.48-.23-17-.19-25.46,0-3.36.07-4.71-.82-4.69-4.45q.16-49.44,0-98.88c0-3.63,1.38-4.56,4.73-4.49,8.48.16,17,.21,25.46,0,3.92-.1,5.51,1.17,5.05,5.15a64.18,64.18,0,0,0-.05,7.21Z"/><path class="cls-5" d="M859.25,129.07c24.35,0,48.2-1.18,71.89.32,25.82,1.62,41.24,18.47,42.43,43.15,1,20.64-6.53,36.72-26.34,46.55l30.22,47.68a23.41,23.41,0,0,1-3.66.65c-11.15,0-22.31-.1-33.46.1-3.13.06-4.73-1.17-6.26-3.71-6.79-11.26-13.92-22.3-20.6-33.62-2.13-3.61-4.51-5.28-8.73-4.79-3.08.36-6.24.07-9.91.07v41.58H859.25Zm35.43,66.12c8.17,0,15.47,0,22.76,0a38.35,38.35,0,0,0,5.46-.39c9.4-1.46,14.8-7.58,14.68-16.54s-5.19-15.16-14.57-15.89c-9.2-.72-18.51-.16-28.08-.16-.08,1.56-.23,3-.24,4.47C894.67,175.94,894.68,185.21,894.68,195.19Z"/><path class="cls-5" d="M1134.87,298.89h-35V160.3h34.66v12.91A43,43,0,0,0,1138,170c15-17.78,40.4-14.93,54.31-1.35s17.55,30.55,16.75,49c-.67,15.2-4.94,29.07-15.91,40.38-14.43,14.87-40.66,16.86-55.72-.17-.53-.6-1.2-1.1-2.57-2.34Zm-2.1-85.83c1.77,5.54,2.56,10.81,5,15.14,7.56,13.4,25.37,13.43,33,.09,5.64-9.85,5.6-20.2-.52-29.88-7.66-12.11-23.78-12.41-31.62-.42C1135.75,202.39,1134.68,208,1132.77,213.06Z"/><path class="cls-7" d="M1787,160.24h34.71v13.54c2.67-2.62,4.59-4.53,6.53-6.42,19-18.48,49.15-10.23,55.61,15.3a50.62,50.62,0,0,1,1.73,11.83c.16,23.47.09,46.95.07,70.43a13.36,13.36,0,0,1-.4,2.2h-34.93v-5.5q0-26.22,0-52.45c0-11.16-5.2-17.79-13.82-17.87-8.77-.08-14.66,6.8-14.75,17.81-.14,17.48,0,35,0,52.45v5.62H1787Z"/><path class="cls-6" d="M2160.92,213.75c0,32.21-23.75,56.34-55.36,56.34s-54.89-24-54.85-56.16c0-32.36,23.88-56.39,55.91-56.35C2137.59,157.61,2161,181.78,2160.92,213.75ZM2084.8,215a46.94,46.94,0,0,0,1.59,7.81c2.86,8.07,8.18,13.75,17,15,8.19,1.15,14.57-2.14,19.23-8.91,6.13-8.92,5.39-23.58-1.63-31.79s-18.13-10-26.85-3.66C2087.47,198.29,2085.08,205.46,2084.8,215Z"/><path class="cls-5" d="M1772,214c-.78,33.07-25.2,56.9-57.45,56-31.17-.82-53.93-25.93-53.08-58.56.83-31.36,26-54.64,58.06-53.77C1749.07,158.48,1772.71,183.84,1772,214Zm-33.45.33c-1.39-4.58-2.13-9.1-4.1-13-3.79-7.55-10.07-11.87-18.85-11.52-8.56.34-14.36,5-17.62,12.59-3.91,9.2-3.28,18.29,2.35,26.64,8.57,12.69,26.54,12,33.83-1.47C1736.33,223.55,1737.1,218.83,1738.56,214.3Z"/><path class="cls-5" d="M1322.3,267.21h-34.9V255.36l-1.44-.85c-1.65,1.91-3.17,4-5,5.72-18.84,18.36-49.06,10-55.66-15.38a46.94,46.94,0,0,1-1.66-11.33c-.15-23.48-.08-47-.07-70.44,0-.8.14-1.6.24-2.74h34.81v24.1c0,11-.16,22,.09,33a34.15,34.15,0,0,0,2,10.69c1.85,5.16,5.94,7.82,11.52,8,5.74.22,10.32-2.08,12.57-7.27a30.8,30.8,0,0,0,2.41-11.54c.24-18.8.1-37.61.1-56.88h35Z"/><path class="cls-5" d="M1478.1,206c1.89-8.21-2.55-15.35-11-17.41-10.05-2.46-19.82-.56-29.43,2.59-1.87.61-3.73,1.28-6.16,2.12-2.25-8.25-4.52-16.2-6.45-24.23-.23-1,1.15-3,2.23-3.46,19.08-7.63,38.7-9.79,58.64-4.27,13.79,3.82,22.62,13.16,25.71,27.2a90.46,90.46,0,0,1,2,18.29c.24,18.47.09,36.94.09,55.41v5.05h-34.56c-.15-2.91-.29-5.8-.48-9.4a33,33,0,0,0-2.92,2.08c-9,8.15-19.55,11-31.4,9.66-15.69-1.74-26.45-12.32-28.17-27.64-2-18.26,5.5-31.46,21.2-36.78,11-3.75,22.27-3.28,33.51-.91C1473.32,204.76,1475.7,205.38,1478.1,206Zm2,22.29c-.84-1.77-1.27-4.61-2.6-5.13-7.31-2.83-14.86-3.8-22.08.4-4.55,2.64-6.65,8.48-5.35,13.91,1.2,5,5.23,8.29,10.81,8.72C1471.44,246.94,1479.15,239.63,1480.12,228.24Z"/><path class="cls-7" d="M758.44,248.07c-12.9,18.44-35.2,26-58.14,20.23C679.05,263,664.42,245.6,662,222.36c-1.95-18.87,2.31-35.76,15.36-50.35,19.17-21.43,67.94-22.45,81.4,19.56,3.15,9.85,4.44,22.7,3,32.56H695.45c2.06,7.28,5.16,12.75,11.6,15.49,12.7,5.39,22.94.5,32.15-8.76Zm-29.39-43.33c-.53-11.54-7.8-19.48-17.18-19.26-8.91.2-16.48,9-16.3,19.26Z"/><path class="cls-7" d="M1061.41,230.9l19.3,17.22c-9.86,13.61-22.84,21-39.26,21.8-39.06,1.92-64.58-29-56.52-68.72,4.39-21.61,16.2-37.13,38.52-42.39,25.33-6,48,6.72,56.87,31.16,3.55,9.81,5,22.6,3.8,34.27h-66.25c1.59,7.06,4.71,12.33,10.82,15.12C1041.51,245.2,1051.89,240.16,1061.41,230.9ZM1051,204.65c.26-10.25-6.78-18.69-15.78-19.16-9.28-.49-16.81,7.52-17.72,19.16Z"/><path class="cls-7" d="M1594.67,234.31c0,9.41.1,18.22-.12,27a5.08,5.08,0,0,1-2.59,3.59,49.21,49.21,0,0,1-37,2.41c-8.93-2.91-14.4-9.54-16.53-18.54a73,73,0,0,1-1.81-15.31c-.25-12.49-.08-25-.08-37.47v-5.43h-11.5V160.12h11.35V133.05h35.39v26.81h23.07v30.65c-5.85,0-11.63.34-17.34-.11-4.84-.38-5.85,1.5-5.71,5.92.29,9.81.09,19.65.09,29.47,0,9.53,4.11,13,13.52,11.22C1588.33,236.46,1591.11,235.37,1594.67,234.31Z"/><path class="cls-7" d="M771.85,190.5V160.25l11.33-.56v-27c6.29,0,12-.12,17.77,0s11.47.54,17.2.83c.12,5.63.27,11.27.36,16.9,0,3,0,5.9,0,9.45h23v30.47h-23c0,7.72,0,14.81,0,21.91,0,5.15-.17,10.32.12,15.47.4,7.29,3.73,10.22,11,9.49,3.72-.37,7.35-1.66,11.77-2.71,0,9.28.09,18.5-.14,27.72,0,1-1.73,2.35-2.94,2.89-12.39,5.51-25.11,6.4-37.88,1.66-9.06-3.36-14.13-10.62-15.64-19.82-1.18-7.17-1.22-14.55-1.38-21.85-.21-9.81-.25-19.64,0-29.45.13-4.17-1.13-5.78-5.3-5.23A50.9,50.9,0,0,1,771.85,190.5Z"/><path class="cls-8" d="M2021.48,200.48c-4.14-3.31-7.37-6.92-11.39-8.91-9.21-4.55-19.67-.51-24.35,9a28.84,28.84,0,0,0-.67,25.12c6,13.63,21.16,16.53,31.94,6.3,5.06-4.8,5.06-4.79,10.49-.51,4.7,3.7,9.24,7.62,14.18,11,3.24,2.2,3,3.87,1,6.8-15.08,22.23-43,24.83-61.38,17.08-28.51-12-41.17-46.93-28.08-76.59,12.61-28.58,45.33-40.62,72.94-26.05,6.33,3.33,11.19,9.59,16.36,14.86.87.89.64,4.49-.36,5.34C2035.36,189.72,2028.23,195.15,2021.48,200.48Z"/><path class="cls-5" d="M1335.8,190.5V160h11.6V133.11h35.14v26.65h22.84v30.58h-22.83v14.34c0,7.15,0,14.31,0,21.46.1,9.1,3.9,12.36,13,10.92a101.67,101.67,0,0,0,10-2.63c0,9.23.11,18.19-.13,27.15,0,1.2-1.62,2.88-2.88,3.45-12.35,5.57-25.08,6.54-37.86,1.82-10.31-3.82-15.31-12.28-16.33-22.63-1-9.89-.67-19.92-.82-29.89-.1-6.32-.28-12.66.07-19,.22-4.12-1.31-5.35-5.15-4.9A60.51,60.51,0,0,1,1335.8,190.5Z"/><path class="cls-5" d="M1611.2,160.25h34.61V267H1611.2Z"/><path class="cls-8" d="M1940.06,248.62c0,11-7.85,18.8-19,18.78-10.58,0-18.95-8.18-18.9-18.43,0-11,8-19.38,18.52-19.44C1931.77,229.46,1940.05,237.63,1940.06,248.62Z"/><path class="cls-9" d="M1646.61,122.85V150H1610.4V122.85Z"/><path class="cls-10" d="M577.16,365.15,595,390q1.72-2.2,17.8-24.83l.09-.05h10.81v.14l-22.63,31,24.12,33.09v.13H614.38q-.4-.44-14.28-19.91-4.89-6.76-5-7H595l-19.38,26.94H565l-.13-.13,23.38-32,.79-1.06L566.35,365.2l0-.05Z"/><path class="cls-10" d="M647.14,365.15h21.18a22.75,22.75,0,0,1,17.31,7.65,20.83,20.83,0,0,1,5.06,13.53q0,9.59-8.13,16.4a23.34,23.34,0,0,1-14.37,4.79H655.44v21.84l-.08.13h-8.22l-.13-.13V365.29Zm8.3,8.57V399h13.28a14,14,0,0,0,10.89-5.23,12.08,12.08,0,0,0,2.55-7.16V386q0-5.76-5.53-9.89-3.43-2.55-9.54-2.55H655.58Z"/><path class="cls-10" d="M713.12,365.15h34.54l.05.05v8.43H721.56V393.1h20.7l0,0v8.35l0,0h-20.7V421h26.15v8.44l-.05,0H713.12l0,0V365.2Z"/><path class="cls-10" d="M511,365.15h34.54l.05.05v8.43H519.45V393.1h20.7l0,0v8.35l0,0h-20.7V421H545.6v8.44l-.05,0H511l0,0V365.2Z"/><path class="cls-10" d="M772.29,365.15h21.18a22.78,22.78,0,0,1,17.32,7.65,20.82,20.82,0,0,1,5.05,13.53q0,9.06-7.25,15.65a21.2,21.2,0,0,1-6.85,4q0,.23,8.61,14.9l4.92,8.44-.09.09h-10a30.24,30.24,0,0,1-2.42-4.22q-9.31-16.35-10-17.71H780.6v21.84l-.09.13h-8.22l-.13-.13V365.29Zm8.31,8.57V399h13.27a14,14,0,0,0,10.9-5.23,12.08,12.08,0,0,0,2.55-7.16V386q0-5.76-5.54-9.89-3.42-2.55-9.54-2.55H780.73Z"/><path class="cls-10" d="M830.81,365.15h42.62l.05.05v8.39l-.05,0h-17v55.82l0,0H847.9l0,0V373.63H830.81l0,0V365.2Z"/><path class="cls-10" d="M928.45,365.15h21.18A22.78,22.78,0,0,1,967,372.8a20.88,20.88,0,0,1,5,13.53q0,9.06-7.25,15.65a21.12,21.12,0,0,1-6.86,4q0,.23,8.62,14.9l4.92,8.44-.09.09h-10a31,31,0,0,1-2.41-4.22q-9.32-16.35-10-17.71H936.76v21.84l-.09.13h-8.22l-.13-.13V365.29Zm8.31,8.57V399H950a14,14,0,0,0,10.9-5.23,12.13,12.13,0,0,0,2.54-7.16V386q0-5.76-5.53-9.89-3.44-2.55-9.54-2.55H936.89Z"/><path class="cls-10" d="M993.86,365.15h34.54l0,.05v8.43H1002.3V393.1H1023l0,0v8.35l0,0h-20.7V421h26.15v8.44l0,0H993.86l0,0V365.2Z"/><path class="cls-10" d="M1053,365.15h21.18a22.78,22.78,0,0,1,17.32,7.65,20.82,20.82,0,0,1,5,13.53q0,9.59-8.13,16.4a23.3,23.3,0,0,1-14.37,4.79h-12.74v21.84l-.09.13H1053l-.13-.13V365.29Zm8.31,8.57V399h13.27a14,14,0,0,0,10.9-5.23,12.08,12.08,0,0,0,2.55-7.16V386q0-5.76-5.54-9.89-3.42-2.55-9.54-2.55h-11.51Z"/><path class="cls-10" d="M1119,365.15h8.21l.09.14v39.15q0,7.08,2.42,10.46a12.76,12.76,0,0,0,7.38,5.58,16,16,0,0,0,3.78.48h6.29q7.5,0,11.64-6.81a18.26,18.26,0,0,0,1.89-8.52V365.29l.13-.14h8.26l.14.14v38.14q0,7.65-1.37,11.07a21.9,21.9,0,0,1-8.79,11.56,23.29,23.29,0,0,1-12.92,3.43H1142q-10,0-16.13-6a22.68,22.68,0,0,1-4.09-5.36,26.19,26.19,0,0,1-2.86-12V365.29Z"/><path class="cls-10" d="M1189.53,365.15h42.62l0,.05v8.39l0,0H1215.1v55.82l0,0h-8.44l0,0V373.63h-17l0,0V365.2Z"/><path class="cls-10" d="M1280.6,365.15q.14,0,3.82,9.45l22.33,54.85-.09,0h-9.18a11.91,11.91,0,0,1-1.28-2.95l-4.44-10.89h-30.54l-5.58,13.84h-9.1v0l22.24-54.89,3.87-9.41Zm-15.86,42h23.55l-11.73-29q-.13,0-4.84,11.86Z"/><path class="cls-10" d="M1320.79,365.15h42.63l0,.05v8.39l0,0h-17.05v55.82l0,0h-8.44l0,0V373.63h-17l0,0V365.2Z"/><path class="cls-10" d="M1383.87,365.15h8.39l0,.05v64.25l0,0h-8.39l0,0V365.2Z"/><path class="cls-10" d="M1447.22,365.15h.13q12.75,0,22.37,10a32.79,32.79,0,0,1,8.52,22.19q0,13.62-10.06,23.78-9.36,8.38-20.83,8.39a30.37,30.37,0,0,1-20.74-8.22,33,33,0,0,1-10.24-23.9v-.18q0-13.62,10.19-23.82l3-2.42A30.16,30.16,0,0,1,1447.22,365.15Zm-22.41,32.13a24.28,24.28,0,0,0,7.91,18.06,21.76,21.76,0,0,0,14.63,5.62q10.55,0,17.8-9.31a24.45,24.45,0,0,0,4.57-14v-.57a24.22,24.22,0,0,0-6.29-16.26q-7-7.24-16.08-7.25-10.15,0-17.4,8.66A24.74,24.74,0,0,0,1424.81,397.28Z"/><path class="cls-10" d="M1502,365.15h9.14l30.85,46,2.81,4.26h.05V365.29l.13-.14h8.26l.13.14v64.07l-.13.13h-9.14q-2.37-3.35-17.54-26.19l-16.26-24.08v50.14l-.08.13H1502l-.13-.13V365.29Z"/><path class="cls-10" d="M1615.28,365.15h10.29q.26.27,11.47,25.45L1648.86,417h.09l23.24-51.81h10.33l.13.14v64.07l-.13.13h-8.74l-.09-.13V382.51h-.09l-20.92,46.76-.17.18h-7.21a15.27,15.27,0,0,1-1.32-2.82l-19.77-44.12h-.09v46.85l-.09.13h-8.75l-.13-.13V365.29Z"/><path class="cls-10" d="M1738,365.15q.12,0,3.82,9.45l22.32,54.85-.08,0h-9.19a12.18,12.18,0,0,1-1.27-2.95l-4.44-10.89h-30.54L1713,429.49h-9.1v0l22.23-54.89,3.87-9.41Zm-15.87,42h23.56l-11.74-29c-.08,0-1.7,3.95-4.83,11.86Z"/><path class="cls-10" d="M1785.13,365.15h9.14l30.85,46,2.81,4.26h0V365.29l.13-.14h8.26l.13.14v64.07l-.13.13h-9.14q-2.37-3.35-17.53-26.19l-16.26-24.08v50.14l-.09.13h-8.22l-.13-.13V365.29Z"/><path class="cls-10" d="M1891.81,365.15q.14,0,3.82,9.45L1918,429.45l-.09,0h-9.19a12.7,12.7,0,0,1-1.27-2.95L1903,415.65h-30.54l-5.58,13.84h-9.1v0L1880,374.56l3.86-9.41Zm-15.87,42h23.56l-11.74-29q-.12,0-4.83,11.86Z"/><path class="cls-10" d="M1966.14,365.15h.13q12.27,0,21.62,9.23a33.37,33.37,0,0,1,5.06,6.73l.48,1q-6.37,3.35-7.56,3.87a21.77,21.77,0,0,0-3.29-4.79,20.67,20.67,0,0,0-4.09-3.6,21.2,21.2,0,0,0-12.22-4q-10.15,0-17.4,8.66a24.74,24.74,0,0,0-5.14,15,24.28,24.28,0,0,0,7.91,18.06,21.76,21.76,0,0,0,14.63,5.62q9.32,0,16.31-7.47a24.22,24.22,0,0,0,5.36-10.24h-16.18l-.08-.13V394.9l0,0v-.09l17.53,0h8l.13.13a56,56,0,0,1-.83,8.83,32,32,0,0,1-4.44,11.25,30.54,30.54,0,0,1-25.89,14.55q-11.34,0-20.61-8.17-10.27-10.15-10.28-23.95v-.18q0-13.62,10.2-23.82a30.48,30.48,0,0,1,3.07-2.46A29.41,29.41,0,0,1,1966.14,365.15Z"/><path class="cls-10" d="M2021.84,365.15h34.54l0,.05v8.43h-26.14V393.1H2051l0,0v8.35l0,0h-20.7V421h26.14v8.44l0,0h-34.54l0,0V365.2Z"/><path class="cls-10" d="M2081,365.15h10.28q.27.27,11.47,25.45L2114.58,417h.09l23.25-51.81h10.33l.13.14v64.07l-.13.13h-8.75l-.09-.13V382.51h-.08l-20.92,46.76-.18.18H2111a15.27,15.27,0,0,1-1.32-2.82l-19.78-44.12h-.09v46.85l-.08.13H2081l-.13-.13V365.29Z"/><path class="cls-10" d="M2175.69,365.15h34.54l.05.05v8.43h-26.15V393.1h20.7l0,0v8.35l0,0h-20.7V421h26.15v8.44l-.05,0h-34.54l0,0V365.2Z"/><path class="cls-10" d="M2234.86,365.15H2244l30.85,46,2.81,4.26h.05V365.29l.13-.14h8.26l.13.14v64.07l-.13.13H2277q-2.37-3.35-17.53-26.19l-16.26-24.08v50.14l-.09.13h-8.22l-.13-.13V365.29Z"/><path class="cls-10" d="M2306.65,365.15h42.62l.05.05v8.39l-.05,0h-17.05v55.82l0,0h-8.44l0,0V373.63h-17l-.05,0V365.2Z"/></g></g></svg>