<?xml version="1.0" encoding="utf-8"?>
<!-- Generator: Adobe Illustrator 26.5.0, SVG Export Plug-In . SVG Version: 6.00 Build 0)  -->
<svg version="1.1" id="Layer_1" xmlns="http://www.w3.org/2000/svg" xmlns:xlink="http://www.w3.org/1999/xlink" x="0px" y="0px"
	 viewBox="0 0 48.8 32" style="enable-background:new 0 0 48.8 32;" xml:space="preserve">
<style type="text/css">
	.st0{fill:#0E90D0;}
</style>
<g transform="translate(0 -6)">
	<path d="M17.2,6c-3.1,0-5.6,2.5-5.6,5.6s2.5,5.6,5.6,5.6s5.6-2.5,5.6-5.6C22.8,8.5,20.3,6,17.2,6z M31.6,6C28.5,6,26,8.5,26,11.6
		s2.5,5.6,5.6,5.6s5.6-2.5,5.6-5.6v0C37.2,8.5,34.7,6,31.6,6z M17.2,9.2c1.3,0,2.4,1.1,2.4,2.4S18.5,14,17.2,14s-2.4-1.1-2.4-2.4
		C14.8,10.3,15.8,9.2,17.2,9.2C17.2,9.2,17.2,9.2,17.2,9.2z M31.6,9.2c1.3,0,2.4,1.1,2.4,2.4S32.9,14,31.6,14s-2.4-1.1-2.4-2.4
		C29.2,10.3,30.2,9.2,31.6,9.2C31.6,9.2,31.6,9.2,31.6,9.2z M18,33.2c-1,1.4-1.6,3.1-1.6,4.8h3.2c0-2.7,2.1-4.8,4.8-4.8
		s4.8,2.1,4.8,4.8h3.2c0-2.7-1.3-5.2-3.5-6.6c2.5-2.5,2.6-6.5,0.1-9s-6.5-2.6-9-0.1s-2.6,6.5-0.1,9c0,0.1,0.1,0.1,0.1,0.1
		C19.2,31.9,18.5,32.5,18,33.2z M24.4,23.6c1.8,0,3.2,1.4,3.2,3.2S26.2,30,24.4,30s-3.2-1.4-3.2-3.2C21.2,25,22.6,23.6,24.4,23.6
		C24.4,23.6,24.4,23.6,24.4,23.6z"/>
	<path class="st0" d="M45.2,26.6c2.5-2.5,2.6-6.5,0.1-9c-2.5-2.5-6.5-2.6-9-0.1s-2.6,6.5-0.1,9c0,0.1,0.1,0.1,0.1,0.1
		c-2.2,1.5-3.5,4-3.6,6.6H36c0-2.7,2.1-4.8,4.8-4.8s4.8,2.1,4.8,4.8h3.2C48.8,30.5,47.5,28,45.2,26.6z M40.8,25.2
		c-1.8,0-3.2-1.4-3.2-3.2s1.4-3.2,3.2-3.2c1.8,0,3.2,1.4,3.2,3.2C44,23.8,42.6,25.2,40.8,25.2C40.8,25.2,40.8,25.2,40.8,25.2z"/>
	<path class="st0" d="M12.4,26.6c2.5-2.5,2.6-6.5,0.1-9s-6.5-2.6-9-0.1s-2.6,6.5-0.1,9c0,0.1,0.1,0.1,0.1,0.1C1.3,28,0,30.5,0,33.2
		h3.2c0-2.7,2.1-4.8,4.8-4.8s4.8,2.1,4.8,4.8H16C16,30.5,14.7,28,12.4,26.6z M8,25.2c-1.8,0-3.2-1.4-3.2-3.2c0-1.8,1.4-3.2,3.2-3.2
		c1.8,0,3.2,1.4,3.2,3.2C11.2,23.8,9.8,25.2,8,25.2C8,25.2,8,25.2,8,25.2z"/>
</g>
</svg>
