<?xml version="1.0" encoding="utf-8"?>
<!-- Generator: Adobe Illustrator 26.5.0, SVG Export Plug-In . SVG Version: 6.00 Build 0)  -->
<svg version="1.1" id="Layer_1" xmlns="http://www.w3.org/2000/svg" xmlns:xlink="http://www.w3.org/1999/xlink" x="0px" y="0px"
	 viewBox="0 0 36 36" style="enable-background:new 0 0 36 36;" xml:space="preserve">
<style type="text/css">
	.st0{fill:#0E90D0;}
</style>
<path class="st0" d="M18,16.2c5,0,9,4,9,9V36h-3.6V25.2c0-2.9-2.2-5.2-5.1-5.4l-0.3,0c-2.9,0-5.2,2.2-5.4,5.1l0,0.3V36H9V25.2
	C9,20.2,13,16.2,18,16.2z M6.3,21.6c0.5,0,1,0.1,1.5,0.2c-0.3,0.9-0.5,1.9-0.5,2.8l0,0.6v0.2c-0.2-0.1-0.4-0.1-0.6-0.1l-0.3,0
	c-1.4,0-2.6,1.1-2.7,2.4l0,0.3V36H0v-8.1C0,24.4,2.8,21.6,6.3,21.6C6.3,21.6,6.3,21.6,6.3,21.6z M29.7,21.6c3.5,0,6.3,2.8,6.3,6.3
	V36h-3.6v-8.1c0-1.4-1.1-2.6-2.4-2.7l-0.3,0c-0.3,0-0.6,0.1-0.9,0.2v-0.2c0-1.2-0.2-2.3-0.6-3.4C28.7,21.7,29.2,21.6,29.7,21.6z
	 M6.3,10.8c2.5,0,4.5,2,4.5,4.5s-2,4.5-4.5,4.5s-4.5-2-4.5-4.5c0,0,0,0,0,0C1.8,12.8,3.8,10.8,6.3,10.8z M29.7,10.8
	c2.5,0,4.5,2,4.5,4.5s-2,4.5-4.5,4.5s-4.5-2-4.5-4.5c0,0,0,0,0,0C25.2,12.8,27.2,10.8,29.7,10.8z M6.3,14.4c-0.5,0-0.9,0.4-0.9,0.9
	c0,0.5,0.4,0.9,0.9,0.9c0.5,0,0.9-0.4,0.9-0.9l0,0C7.2,14.8,6.8,14.4,6.3,14.4z M29.7,14.4c-0.5,0-0.9,0.4-0.9,0.9
	c0,0.5,0.4,0.9,0.9,0.9c0.5,0,0.9-0.4,0.9-0.9C30.6,14.8,30.2,14.4,29.7,14.4C29.7,14.4,29.7,14.4,29.7,14.4z M18,0
	c4,0,7.2,3.2,7.2,7.2S22,14.4,18,14.4s-7.2-3.2-7.2-7.2S14,0,18,0C18,0,18,0,18,0z M18,3.6c-2,0-3.6,1.6-3.6,3.6s1.6,3.6,3.6,3.6
	s3.6-1.6,3.6-3.6S20,3.6,18,3.6L18,3.6z"/>
</svg>
