<?xml version="1.0" encoding="utf-8"?>
<!-- Generator: Adobe Illustrator 26.5.0, SVG Export Plug-In . SVG Version: 6.00 Build 0)  -->
<svg version="1.1" id="Layer_1" xmlns="http://www.w3.org/2000/svg" xmlns:xlink="http://www.w3.org/1999/xlink" x="0px" y="0px"
	 viewBox="0 0 23 24" style="enable-background:new 0 0 23 24;" xml:space="preserve">
<style type="text/css">
	.st0{fill:#FFFFFF;}
</style>
<path class="st0" d="M4.2,0v1H0v23h23V1h-4.2V0h-2.1v1H6.3V0H4.2z M2.1,3.1h2.1v1h2.1v-1h10.4v1h2.1v-1h2.1v2.1H2.1V3.1z M2.1,7.3
	h18.8v14.6H2.1V7.3z M8.3,9.4v2.1h2.1V9.4H8.3z M12.5,9.4v2.1h2.1V9.4H12.5z M16.7,9.4v2.1h2.1V9.4H16.7z M4.2,13.6v2.1h2.1v-2.1
	H4.2z M8.3,13.6v2.1h2.1v-2.1H8.3z M12.5,13.6v2.1h2.1v-2.1H12.5z M16.7,13.6v2.1h2.1v-2.1H16.7z M4.2,17.7v2.1h2.1v-2.1H4.2z
	 M8.3,17.7v2.1h2.1v-2.1H8.3z M12.5,17.7v2.1h2.1v-2.1H12.5z"/>
</svg>
