<?xml version="1.0" encoding="utf-8"?>
<!-- Generator: Adobe Illustrator 26.0.1, SVG Export Plug-In . SVG Version: 6.00 Build 0)  -->
<svg version="1.1" id="Layer_1" xmlns="http://www.w3.org/2000/svg" xmlns:xlink="http://www.w3.org/1999/xlink" x="0px" y="0px"
	 viewBox="0 0 28 28" style="enable-background:new 0 0 28 28;" xml:space="preserve">
<style type="text/css">
	.st0{fill:#0E90D0;}
</style>
<g transform="translate(-360 -4898)">
	<path class="st0" d="M374,4900c-6.6,0-12,5.4-12,12c0,3.2,1.3,6.2,3.5,8.5c4.6,4.7,12.2,4.8,17,0.1c4.7-4.6,4.8-12.2,0.1-17
		c0,0-0.1-0.1-0.1-0.1C380.2,4901.3,377.2,4900,374,4900 M374,4898c7.7,0,14,6.3,14,14s-6.3,14-14,14s-14-6.3-14-14
		S366.3,4898,374,4898z"/>
	<g transform="translate(-546 -1021)">
		<path class="st0" d="M926,5934h-12v-2h12V5934z"/>
	</g>
</g>
</svg>
