<?xml version="1.0" encoding="utf-8"?>
<!-- Generator: Adobe Illustrator 26.5.0, SVG Export Plug-In . SVG Version: 6.00 Build 0)  -->
<svg version="1.1" id="Layer_1" xmlns="http://www.w3.org/2000/svg" xmlns:xlink="http://www.w3.org/1999/xlink" x="0px" y="0px"
	 viewBox="0 0 19.6 26" style="enable-background:new 0 0 19.6 26;" xml:space="preserve">
<style type="text/css">
	.st0{fill:#FFFFFF;}
</style>
<path class="st0" d="M18.4,10.4c-0.6-0.4-1.3-0.5-2-0.3c-0.7,0.2-1.2,0.6-1.6,1.2V5c0-1.4-1.2-2.6-2.6-2.6c-0.2,0-0.4,0-0.6,0.1
	C11.5,1.1,10.4,0,9,0C7.9,0,6.9,0.7,6.6,1.7C6.3,1.7,6.1,1.6,5.8,1.6c-1.4,0-2.6,1.2-2.6,2.6v0.7C3,4.8,2.8,4.8,2.6,4.8
	C1.2,4.8,0,6,0,7.4v8.8c0,6,3.3,9.8,8.6,9.8c5.4,0,7.2-2.9,8.1-5.1l2.6-7.1C20,12.6,19.5,11.1,18.4,10.4z M17.6,12.9
	c0,0,0,0.1-0.1,0.1l-2.6,7.2c-0.8,1.9-2.1,3.8-6.3,3.8C4.4,24,2,21.2,2,16.2V7.4c0-0.3,0.3-0.6,0.6-0.6s0.6,0.3,0.6,0.6V13
	c0,0.6,0.4,1,1,1s1-0.4,1-1V7.4V4.2c0-0.3,0.3-0.6,0.6-0.6c0.3,0,0.6,0.3,0.6,0.6v8c0,0.6,0.4,1,1,1s1-0.4,1-1v-8V2.6
	C8.4,2.3,8.7,2,9,2s0.6,0.3,0.6,0.6V5v7.2v0c0,0.6,0.4,1,1,1s1-0.4,1-1v0c0,0,0,0,0,0V5c0-0.3,0.3-0.6,0.6-0.6
	c0.3,0,0.6,0.3,0.6,0.6v11.2c0,0,0,0,0,0c0,0.1,0,0.3,0.1,0.4c0,0,0,0,0,0c0.1,0.2,0.3,0.4,0.5,0.5c0.5,0.2,1.1,0,1.3-0.5l1.8-4.3
	c0.1-0.1,0.2-0.2,0.4-0.2c0.2,0,0.3,0,0.4,0.1C17.6,12.3,17.7,12.6,17.6,12.9z"/>
</svg>
