<?xml version="1.0" encoding="utf-8"?>
<!-- Generator: Adobe Illustrator 26.5.0, SVG Export Plug-In . SVG Version: 6.00 Build 0)  -->
<svg version="1.1" id="Layer_1" xmlns="http://www.w3.org/2000/svg" xmlns:xlink="http://www.w3.org/1999/xlink" x="0px" y="0px"
	 viewBox="0 0 27.9 21" style="enable-background:new 0 0 27.9 21;" xml:space="preserve">
<style type="text/css">
	.st0{fill:#FFFFFF;}
</style>
<path class="st0" d="M17.3,0c-0.6,0-1.1,0.1-1.7,0.2c-0.6,0.2-1.2,0.4-1.8,0.8c-0.7-0.4-1.4-0.7-2.2-0.9C10.7,0,9.8,0,8.9,0.1
	c-1.1,0-1.9,0.6-3.1,1.1C4.3,1.7,2.7,2,1,2H0v9.6l0.6,0.3l1.8,0.9l6.5,7.3l0,0c0.7,0.7,1.7,1,2.6,0.9c0.8,0,1.7-0.3,2.4-0.7
	c1.5-0.9,5.5-3.7,5.5-3.7l0.1-0.1l0.1-0.1c0.4-0.5,0.7-1,0.9-1.7l3.8-1.9l2.9-1l0.7-0.2V2h-1c-1.7,0-3.3-0.3-4.9-0.9
	c-1.2-0.5-1.9-1-3.1-1.1C18.4,0,17.8,0,17.3,0z M17.3,2c0.4,0,1,0,1.6,0C19,2,20,2.4,21.3,3c1.5,0.6,3,0.9,4.6,1v6.4l-2.3,0.8h-0.1
	l-0.1,0l-3,1.5c-0.2-0.5-0.4-0.9-0.7-1.2l-0.1-0.1l-4.2-5.2l-0.6-0.8L14,5.9l-2.7,2.2C10.6,8.6,9.7,8.6,9,8.2C8.8,8.1,8.7,8,8.6,7.9
	l4.5-3.8l0.1-0.1c0.8-0.9,1.8-1.6,2.9-2C16.5,2,16.9,2,17.3,2z M10.3,2c0.3,0,0.7,0,1,0c0.3,0.1,0.6,0.2,0.8,0.3
	c-0.1,0.1-0.2,0.1-0.3,0.2l-0.1,0.1L6.4,7.2L5.5,7.9l0.7,0.8c0.5,0.5,1.2,1,1.8,1.3c1.4,0.7,3.1,0.6,4.4-0.2l0.1-0.1l1.9-1.6
	l3.7,4.5l0,0.1l0,0c0.6,0.6,0.7,1.7,0,2.3c0,0,0,0,0,0c0,0,0,0,0,0s-0.1,0.1-0.2,0.1l-1.3-1.8l-1.6,1.2l1.3,1.7
	c-0.5,0.4-0.8,0.5-1.3,0.9l-1.3-1.8l-1.6,1.2l1.3,1.7c-0.1,0.1-0.3,0.2-0.4,0.3c-0.5,0.2-1,0.4-1.5,0.4c-0.4,0-0.8,0-1.1-0.2l0,0
	l-6.7-7.4l-0.1-0.2L2,10.4V3.9C3.6,3.8,5.1,3.5,6.6,3C7.9,2.5,8.9,2.1,9,2.1C9.5,2,10,2,10.3,2z"/>
</svg>
