<?xml version="1.0" encoding="utf-8"?>
<!-- Generator: Adobe Illustrator 26.5.0, SVG Export Plug-In . SVG Version: 6.00 Build 0)  -->
<svg version="1.1" id="Layer_1" xmlns="http://www.w3.org/2000/svg" xmlns:xlink="http://www.w3.org/1999/xlink" x="0px" y="0px"
	 viewBox="0 0 26.1 26" style="enable-background:new 0 0 26.1 26;" xml:space="preserve">
<style type="text/css">
	.st0{fill:#FFFFFF;}
</style>
<g transform="translate(-46.88 -47)">
	<path class="st0" d="M70.6,68.7l-0.1,0c-0.2,0-0.4-0.1-0.5-0.1l-3.2-1.1c-0.1,0-0.2,0-0.2-0.1c-0.1,0-0.1,0-0.2,0
		c-0.2,0.1-0.9,0.3-1.6,0.5c-1,0.3-1.9,0.4-2.9,0.5c0,0,0,0,0,0c-3,0-5.7-1.1-7.7-3.1c-2-2-3.2-4.7-3.2-7.6c0-0.7,0.1-1.5,0.2-2.2
		c1.2-5.1,5.6-8.5,10.8-8.5c2.9,0,5.6,1,7.7,3c2.1,2,3.3,4.7,3.3,7.6c0,2.1-0.6,4.1-1.8,5.8c-0.1,0.1-0.1,0.1-0.1,0.1l-0.1,0
		l0.9,3.3c0,0.1,0.1,0.2,0.1,0.3C72.1,68,71.4,68.7,70.6,68.7z M70.1,67.4L70.1,67.4L70.1,67.4z M61.9,49c-4.2,0-7.8,2.8-8.8,6.9
		c-0.1,0.6-0.2,1.2-0.2,1.7c0,2.3,0.9,4.5,2.6,6.2c1.7,1.7,3.8,2.6,6.2,2.6c0.8,0,1.7-0.2,2.5-0.4c0.6-0.2,1.2-0.4,1.4-0.4
		c0.3-0.1,0.6-0.2,0.9-0.2c0.4,0,0.7,0.1,1,0.2l2.3,0.8l-0.7-2.6c0-0.5,0.1-1,0.4-1.4c0,0,0.1-0.1,0.1-0.2c0.9-1.3,1.4-2.9,1.4-4.6
		c0-2.3-1-4.5-2.7-6.2C66.6,49.8,64.4,49,62,49C62,49,61.9,49,61.9,49z"/>
	<path class="st0" d="M49.4,73c-0.3,0-0.6-0.1-0.9-0.3c-0.4-0.4-0.6-0.9-0.5-1.4l0,0c0,0,0.5-2.5,0.6-3.3c-2-3-2.1-6.7-0.4-9.8
		c0.3-0.5,0.9-0.7,1.4-0.4c0.5,0.3,0.7,0.9,0.4,1.4c-1.4,2.5-1.2,5.4,0.3,7.8c0.1,0.2,0.5,0.7,0.3,1.2c0,0.1-0.3,1.6-0.5,2.6
		l2.3-0.9c0.5-0.2,1-0.2,1.5,0c1,0.4,2,0.6,3.1,0.6c0,0,0,0,0,0c1.4,0,2.9-0.4,4.1-1.1c0.5-0.3,1.1-0.1,1.4,0.4
		c0.3,0.5,0.1,1.1-0.4,1.4c-1.6,0.9-3.3,1.4-5.1,1.4c0,0,0,0,0,0c-1.3,0-2.6-0.3-3.9-0.8l-3.2,1.3C49.8,73,49.6,73,49.4,73z
		 M49.9,71.6C49.9,71.6,49.9,71.6,49.9,71.6C49.9,71.6,49.9,71.6,49.9,71.6z M49.2,71C49.2,71,49.2,71,49.2,71L49.2,71z M48.6,67.7
		C48.6,67.7,48.6,67.7,48.6,67.7C48.6,67.7,48.6,67.7,48.6,67.7z"/>
</g>
</svg>
