<?xml version="1.0" encoding="utf-8"?>
<!-- Generator: Adobe Illustrator 26.5.0, SVG Export Plug-In . SVG Version: 6.00 Build 0)  -->
<svg version="1.1" id="Layer_1" xmlns="http://www.w3.org/2000/svg" xmlns:xlink="http://www.w3.org/1999/xlink" x="0px" y="0px"
	 viewBox="0 0 40 40" style="enable-background:new 0 0 40 40;" xml:space="preserve">
<style type="text/css">
	.st0{fill:#0E90D0;}
</style>
<g transform="translate(-3 -3)">
	<path d="M18.2,3c-0.7,0-1.4,0.3-1.9,0.8c-0.5,0.5-0.8,1.2-0.8,1.9v1.4H3v27.6h15.4c-0.2-0.9-0.3-1.8-0.3-2.8H5.8v-9.1
		c0.8,0.5,1.8,0.8,2.8,0.8h12.4c0.8-1.1,1.7-2,2.8-2.8H8.5c-1.4,0.1-2.7-1-2.8-2.4c0-0.1,0-0.2,0-0.3V9.9h30.3v8.8
		c1,0.3,1.9,0.7,2.8,1.2V7.1H26.4V5.8c0-0.7-0.3-1.4-0.8-1.9C25.1,3.3,24.4,3,23.7,3H18.2z M18.2,5.8h5.5v1.4h-5.5V5.8z M11.3,15.4
		v4.1H14v-4.1H11.3z M27.8,15.4v3.4c0.4-0.1,0.8-0.3,1.4-0.4c0.4-0.1,1-0.1,1.4-0.3v-2.8H27.8z"/>
	<path class="st0" d="M32,20.9c-6.1,0-11,4.9-11,11s4.9,11,11,11c6.1,0,11-4.9,11-11C43,25.9,38.1,20.9,32,20.9z M32,40.2
		c-4.6,0-8.3-3.7-8.3-8.3s3.7-8.3,8.3-8.3s8.3,3.7,8.3,8.3C40.2,36.5,36.5,40.2,32,40.2z"/>
	<path class="st0" d="M30.6,25.1v8.3h6.9v-2.8h-4.1v-5.5H30.6z"/>
</g>
</svg>
