<?xml version="1.0" encoding="UTF-8"?><svg id="Layer_2" xmlns="http://www.w3.org/2000/svg" viewBox="0 0 28.004 14.024"><defs><style>.cls-1{fill:#fff;}</style></defs><g id="Layer_1-2"><g><g><path class="cls-1" d="M13.781,6.392L9.001,.392c-.348-.431-.979-.498-1.41-.15s-.498,.979-.15,1.41l4.27,5.37-4.48,5.37c-.324,.447-.225,1.072,.223,1.397,.408,.296,.973,.242,1.317-.127l5-6c.306-.367,.31-.899,.01-1.27Z"/><path class="cls-1" d="M2.001,.392C1.653-.052,1.011-.131,.566,.217,.122,.565,.043,1.208,.391,1.652H.391L4.711,7.022,.231,12.382c-.353,.425-.295,1.057,.13,1.41s1.057,.295,1.41-.13h0L6.771,7.662c.303-.369,.303-.901,0-1.27L2.001,.392Z"/></g><g><path class="cls-1" d="M27.781,6.392L23.001,.392c-.348-.431-.979-.498-1.41-.15s-.498,.979-.15,1.41l4.27,5.37-4.48,5.37c-.324,.447-.225,1.072,.223,1.397,.408,.296,.973,.242,1.317-.127l5-6c.306-.367,.31-.899,.01-1.27Z"/><path class="cls-1" d="M16.001,.392c-.348-.445-.99-.523-1.435-.175-.445,.348-.523,.99-.175,1.435h0l4.32,5.37-4.48,5.36c-.353,.425-.295,1.057,.13,1.41s1.057,.295,1.41-.13h0l5-6c.303-.369,.303-.901,0-1.27L16.001,.392Z"/></g></g></g></svg>