<?xml version="1.0" encoding="utf-8"?>
<!-- Generator: Adobe Illustrator 26.5.0, SVG Export Plug-In . SVG Version: 6.00 Build 0)  -->
<svg version="1.1" id="Layer_1" xmlns="http://www.w3.org/2000/svg" xmlns:xlink="http://www.w3.org/1999/xlink" x="0px" y="0px"
	 viewBox="0 0 23 22" style="enable-background:new 0 0 23 22;" xml:space="preserve">
<style type="text/css">
	.st0{fill:#014E72;}
</style>
<path class="st0" d="M11,1.1c0.1-0.3,0.4-0.4,0.7-0.3C11.8,0.9,11.9,1,12,1.1l2.6,6.4c0.1,0.2,0.2,0.3,0.4,0.3l6.8,0.5
	c0.3,0,0.5,0.3,0.5,0.5c0,0.1-0.1,0.3-0.2,0.3l-5.2,4.4c-0.1,0.1-0.2,0.3-0.2,0.5l1.6,6.7c0.1,0.3-0.1,0.5-0.4,0.6
	c-0.1,0-0.3,0-0.4-0.1l-5.8-3.6c-0.2-0.1-0.4-0.1-0.5,0l-5.8,3.6c-0.2,0.1-0.5,0.1-0.7-0.2c-0.1-0.1-0.1-0.3-0.1-0.4l1.6-6.7
	c0-0.2,0-0.4-0.2-0.5L0.9,9.2C0.7,9,0.7,8.7,0.9,8.5C1,8.4,1.1,8.3,1.2,8.3L8,7.8c0.2,0,0.4-0.1,0.4-0.3L11,1.1z"/>
</svg>
