<svg xmlns="http://www.w3.org/2000/svg" width="40" height="40" viewBox="0 0 40 40"><defs><style>.a{fill:none;}.b{fill:#36f;}</style></defs><g transform="translate(-155 -5272)"><rect class="a" width="40" height="40" transform="translate(155 5272)"/><g transform="translate(155.003 5275.084)"><g transform="translate(-0.003 -0.003)"><path class="b" d="M31.578,0V3.344a3.45,3.45,0,0,1,3.477,3.477v20.06a3.6,3.6,0,0,1-3.611,3.611,4.012,4.012,0,0,1-2.14-.669L5.5,12.437v4.146L27.3,32.5a7.569,7.569,0,0,0,4.012,1.337,6.219,6.219,0,0,0,3.076-.8,7.048,7.048,0,0,0,3.745-6.152V6.821A6.459,6.459,0,0,0,31.578,0Z" transform="translate(1.859 0.004)"/><path class="b" d="M5.35,3.746a3.464,3.464,0,0,1,3.745.267L32.9,21.4V17.253L10.967,1.338a6.767,6.767,0,0,0-9.629,1.6A6.058,6.058,0,0,0,0,6.955v20.06a6.847,6.847,0,0,0,6.82,6.82V30.492a3.45,3.45,0,0,1-3.477-3.477V6.955A3.731,3.731,0,0,1,5.35,3.746Z" transform="translate(0.003 0.003)"/></g></g></g></svg>