<svg xmlns="http://www.w3.org/2000/svg" width="40" height="40" viewBox="0 0 40 40"><defs><style>.a{fill:none;}.b{fill:#3ddc84;}</style></defs><g transform="translate(-155 -5606)"><rect class="a" width="40" height="40" transform="translate(155 5606)"/><path class="b" d="M29.807,6.728,33.14.96a.693.693,0,1,0-1.2-.7L28.57,6.1a20.877,20.877,0,0,0-17.121,0L8.077.264a.693.693,0,1,0-1.2.7l3.333,5.768A19.621,19.621,0,0,0,0,22.457H40A19.667,19.667,0,0,0,29.807,6.728ZM10.792,16.757a1.662,1.662,0,1,1,1.662-1.662h0A1.662,1.662,0,0,1,10.792,16.757Zm18.415,0a1.662,1.662,0,1,1,1.662-1.662A1.662,1.662,0,0,1,29.208,16.757Z" transform="translate(155 5614.812)"/></g></svg>