<svg xmlns="http://www.w3.org/2000/svg" width="40" height="40" viewBox="0 0 40 40"><defs><style>.a{fill:none;}.b{fill:#252f3e;}.c{fill:#f90;}</style></defs><g transform="translate(-1043 -5606)"><rect class="a" width="40" height="40" transform="translate(1043 5606)"/><g transform="translate(1043.032 5614.05)"><path class="b" d="M21.992,8.678a3.987,3.987,0,0,0,.173,1.184,7.755,7.755,0,0,0,.426.958.633.633,0,0,1,.093.306.509.509,0,0,1-.253.4l-.838.559a.677.677,0,0,1-.346.12.657.657,0,0,1-.4-.186,3.706,3.706,0,0,1-.479-.625c-.133-.226-.266-.479-.412-.785a4.915,4.915,0,0,1-3.911,1.836,3.645,3.645,0,0,1-2.661-.958A3.418,3.418,0,0,1,12.4,8.931,3.425,3.425,0,0,1,13.611,6.19,4.84,4.84,0,0,1,16.87,5.152a10.063,10.063,0,0,1,1.41.106c.492.067,1,.173,1.53.293V4.58a2.948,2.948,0,0,0-.625-2.129,3.062,3.062,0,0,0-2.168-.612,5.818,5.818,0,0,0-1.437.173,10.6,10.6,0,0,0-1.437.452,4.811,4.811,0,0,1-.466.173.6.6,0,0,1-.213.04c-.186,0-.279-.133-.279-.412V1.614a.944.944,0,0,1,.093-.466,1.1,1.1,0,0,1,.372-.279,7.4,7.4,0,0,1,1.676-.6A8.44,8.44,0,0,1,17.4.017a4.861,4.861,0,0,1,3.486,1.078,4.4,4.4,0,0,1,1.1,3.273ZM16.617,10.7a4.016,4.016,0,0,0,1.37-.239,3.045,3.045,0,0,0,1.264-.851,2.029,2.029,0,0,0,.452-.851A4.829,4.829,0,0,0,19.837,7.6V7.042a12.4,12.4,0,0,0-1.224-.226,9.866,9.866,0,0,0-1.251-.08,3.067,3.067,0,0,0-1.982.532,1.854,1.854,0,0,0-.652,1.53,1.717,1.717,0,0,0,1.889,1.9ZM27.3,12.137A.766.766,0,0,1,26.794,12a1.1,1.1,0,0,1-.279-.519L23.389,1.2a1.819,1.819,0,0,1-.12-.532.308.308,0,0,1,.253-.333h1.37a.737.737,0,0,1,.519.133,1.088,1.088,0,0,1,.266.519L27.912,9.8,29.987.988A.933.933,0,0,1,30.24.47a.935.935,0,0,1,.532-.133h1.064a.8.8,0,0,1,.532.133.955.955,0,0,1,.253.519l2.1,8.913,2.3-8.913A1.078,1.078,0,0,1,37.291.47.892.892,0,0,1,37.81.337h1.237a.3.3,0,0,1,.333.253v.08a1.164,1.164,0,0,1-.027.213,2.426,2.426,0,0,1-.093.333L36.054,11.5a1.02,1.02,0,0,1-.279.519.851.851,0,0,1-.506.133H34.125a.8.8,0,0,1-.532-.133,1,1,0,0,1-.253-.532L31.278,2.9l-2.049,8.568a1,1,0,0,1-.253.532.841.841,0,0,1-.532.133Zm17.1.359a8.8,8.8,0,0,1-2.049-.239,6.052,6.052,0,0,1-1.53-.532.934.934,0,0,1-.412-.373.893.893,0,0,1-.08-.373V10.3c0-.279.106-.412.306-.412a.753.753,0,0,1,.239.04c.08.027.2.08.333.133a6.946,6.946,0,0,0,1.463.466,7.891,7.891,0,0,0,1.583.16,3.589,3.589,0,0,0,1.942-.439,1.433,1.433,0,0,0,.692-1.264,1.283,1.283,0,0,0-.359-.931,3.338,3.338,0,0,0-1.344-.692l-1.929-.6a4.058,4.058,0,0,1-2.129-1.357,3.167,3.167,0,0,1-.665-1.929A2.859,2.859,0,0,1,40.816,2,3.421,3.421,0,0,1,41.774.909,4.1,4.1,0,0,1,43.158.217a5.484,5.484,0,0,1,1.676-.226,6.678,6.678,0,0,1,.891.053c.306.04.585.093.865.146s.519.133.758.213a3.531,3.531,0,0,1,.559.239,1.072,1.072,0,0,1,.4.333.65.65,0,0,1,.12.439v.625c0,.279-.106.426-.306.426a1.721,1.721,0,0,1-.506-.16,6.016,6.016,0,0,0-2.554-.519,3.434,3.434,0,0,0-1.769.373,1.285,1.285,0,0,0-.625,1.184,1.21,1.21,0,0,0,.4.945,3.974,3.974,0,0,0,1.463.732l1.889.6A4.046,4.046,0,0,1,48.479,6.9a2.956,2.956,0,0,1,.612,1.863,3.276,3.276,0,0,1-.346,1.543,3.75,3.75,0,0,1-.971,1.171,4.184,4.184,0,0,1-1.477.745A6.519,6.519,0,0,1,44.4,12.5Z" transform="translate(-10.778 0)"/><path class="c" d="M36.131,116.151c-4.377,3.233-10.736,4.949-16.2,4.949A29.314,29.314,0,0,1,.145,113.557c-.412-.372-.04-.878.452-.585a39.9,39.9,0,0,0,19.8,5.255,39.485,39.485,0,0,0,15.1-3.086C36.224,114.807,36.85,115.619,36.131,116.151Zm1.823-2.075c-.559-.718-3.7-.346-5.122-.173-.426.053-.492-.319-.106-.6,2.5-1.756,6.612-1.251,7.091-.665s-.133,4.709-2.474,6.678c-.359.306-.705.146-.545-.253C37.329,117.747,38.513,114.781,37.954,114.076Z" transform="translate(0 -97.189)"/></g></g></svg>