<svg xmlns="http://www.w3.org/2000/svg" width="40" height="40" viewBox="0 0 40 40"><defs><style>.a{fill:#fff;}.b{fill:#34313f;}</style></defs><g transform="translate(0.01 -0.2)"><path class="a" d="M65.033,77.156a.259.259,0,0,1-.178-.333.254.254,0,0,1,.156-.178A4.7,4.7,0,0,0,67.878,72.4c0-2.6-2.244-5-6.044-5H59.389L44.7,82.044l6.556-6.533V86.778a.332.332,0,0,0,.311.289H62.144c3.844,0,5.844-2.378,5.844-5.333A4.9,4.9,0,0,0,65.033,77.156Zm-9.489-5.8a.332.332,0,0,1,.311-.289H60.9a2.087,2.087,0,0,1,2.333,2.067A2.064,2.064,0,0,1,60.9,75.2H55.856a.332.332,0,0,1-.311-.289Zm5.511,12h-5.2a.3.3,0,0,1-.311-.311V79.133a.332.332,0,0,1,.311-.289h5.222a2.277,2.277,0,0,1,2.556,2.244C63.611,82.533,62.656,83.356,61.056,83.356Z" transform="translate(-34.775 -52.222)"/><path class="a" d="M93.5,87.744V84.189a.332.332,0,0,1,.311-.289h5.044a2.087,2.087,0,0,1,2.333,2.067,2.064,2.064,0,0,1-2.333,2.067H93.811A.3.3,0,0,1,93.5,87.744Z" transform="translate(-72.731 -65.077)"/><path class="a" d="M93.5,123.1v-3.911a.332.332,0,0,1,.311-.289h5.222a2.277,2.277,0,0,1,2.556,2.244c0,1.444-.956,2.244-2.556,2.244H93.811A.286.286,0,0,1,93.5,123.1Z" transform="translate(-72.731 -92.289)"/><g transform="translate(-0.01 0.2)"><g transform="translate(20.779 18.63)"><path class="b" d="M101.189,85.967a2.064,2.064,0,0,1-2.333,2.067H93.811a.332.332,0,0,1-.311-.289V84.189a.332.332,0,0,1,.311-.289h5.044A2.1,2.1,0,0,1,101.189,85.967Z" transform="translate(-93.5 -83.9)"/><path class="b" d="M101.567,121.167c0,1.444-.956,2.244-2.556,2.244h-5.2a.3.3,0,0,1-.311-.311v-3.911a.332.332,0,0,1,.311-.289h5.222A2.273,2.273,0,0,1,101.567,121.167Z" transform="translate(-93.5 -111.122)"/></g><path class="b" d="M39.99.422V39.933a.27.27,0,0,1-.267.267H.326a.321.321,0,0,1-.333-.356A.357.357,0,0,1,.1,39.6l5.8-5.784.333-.334,3.689-3.671h0l6.555-6.541V34.549a.332.332,0,0,0,.311.289H27.369c3.844,0,5.844-2.38,5.844-5.339a4.877,4.877,0,0,0-2.933-4.583.259.259,0,0,1-.178-.334.254.254,0,0,1,.156-.178,4.71,4.71,0,0,0,2.867-4.249c0-2.6-2.244-5.006-6.044-5.006H24.636l6.022-6.007L31.68,8.12h0l7.6-7.586.267-.267a.27.27,0,0,1,.356,0A.149.149,0,0,1,39.99.422Z" transform="translate(0.01 -0.2)"/></g></g></svg>