<svg xmlns="http://www.w3.org/2000/svg" width="40" height="40" viewBox="0 0 40 40"><defs><style>.a{fill:none;}.b{fill:#9a4993;}.c{fill:#6a1577;}.d{fill:#813084;}.e{fill:#fff;}</style></defs><g transform="translate(-451 -5017)"><rect class="a" width="40" height="40" transform="translate(451 5017)"/><g transform="translate(248.292 4859.255)"><path class="b" d="M240.491,169.492a3.469,3.469,0,0,0-.438-1.775,3.349,3.349,0,0,0-1.282-1.249q-7.1-4.092-14.211-8.185a3.5,3.5,0,0,0-3.78.033c-1.885,1.107-11.329,6.519-14.134,8.152a3.279,3.279,0,0,0-1.72,3.035v16.479a3.593,3.593,0,0,0,.416,1.742,3.436,3.436,0,0,0,1.3,1.293c2.816,1.633,12.25,7.034,14.134,8.152a3.477,3.477,0,0,0,3.78.033q7.1-4.109,14.211-8.185a3.288,3.288,0,0,0,1.3-1.293,3.593,3.593,0,0,0,.416-1.742Z"/><path class="c" d="M230.759,582.333,213.327,592.37a3.436,3.436,0,0,0,1.3,1.293c2.816,1.633,12.25,7.034,14.134,8.152a3.476,3.476,0,0,0,3.78.033q7.1-4.109,14.211-8.185a3.288,3.288,0,0,0,1.3-1.293Z" transform="translate(-8.008 -404.656)"/><path class="c" d="M474.735,585.3a5.878,5.878,0,0,0,10.234-.033l-5.073-2.936Z" transform="translate(-257.144 -404.656)"/><path class="d" d="M602.406,371.947a3.469,3.469,0,0,0-.438-1.775l-17.3,9.96,17.323,10.037a3.593,3.593,0,0,0,.416-1.742Z" transform="translate(-361.915 -202.455)"/><g transform="translate(210.875 165.921)"><path class="e" d="M348.612,346.588a5.889,5.889,0,1,1-.044-5.829l5.139-2.958a11.8,11.8,0,1,0,.044,11.757Zm6.5-5.676h-1.172v5.665h1.172Zm2.6,0h-1.172v5.665h1.172Z" transform="translate(-331.662 -331.895)"/><path class="e" d="M791.756,544.289h-5.665v1.172h5.665Zm0,2.586h-5.665v1.172h5.665Z" transform="translate(-764.758 -534.318)"/></g></g></g></svg>