<svg xmlns="http://www.w3.org/2000/svg" width="40" height="40" viewBox="0 0 40 40"><defs><style>.a{fill:none;}.b{fill:#00599c;}.c{fill:#004482;}.d{fill:#659ad2;}.e{fill:#fff;}</style></defs><g transform="translate(-747 -5017)"><rect class="a" width="40" height="40" transform="translate(747 5017)"/><g transform="translate(749.227 5017)"><path class="b" d="M170.32,106.088a3.15,3.15,0,0,0,.452-1.516V87.6a3.148,3.148,0,0,0-.452-1.516L153,96.088Z" transform="translate(-135.227 -76.088)"/><path class="c" d="M22.753,191.808l14.694-8.484a3.148,3.148,0,0,0,1.087-1.15l-17.32-10-17.32,10a3.149,3.149,0,0,0,1.087,1.15l14.694,8.484A3.414,3.414,0,0,0,22.753,191.808Z" transform="translate(-3.441 -152.175)"/><path class="d" d="M35.093,10a3.151,3.151,0,0,0-1.087-1.15L19.312.367a3.414,3.414,0,0,0-3.078,0L1.539,8.85A3.414,3.414,0,0,0,0,11.516V28.484A3.149,3.149,0,0,0,.452,30l17.32-10Z" transform="translate(0 0)"/><g transform="translate(5.924 8.152)"><path class="e" d="M62.848,93.872A11.848,11.848,0,1,1,73.109,76.1l-5.128,2.967a5.924,5.924,0,1,0,0,5.921l5.128,2.967A11.891,11.891,0,0,1,62.848,93.872Z" transform="translate(-51 -70.175)"/></g><g transform="translate(25.672 18.025)"><path class="e" d="M224.949,156.491h-1.317v-1.316h-1.316v1.316H221v1.316h1.317v1.317h1.316v-1.317h1.317Z" transform="translate(-221 -155.175)"/></g><g transform="translate(30.608 18.025)"><path class="e" d="M267.449,156.491h-1.317v-1.316h-1.316v1.316H263.5v1.316h1.317v1.317h1.316v-1.317h1.317Z" transform="translate(-263.5 -155.175)"/></g></g></g></svg>