<svg xmlns="http://www.w3.org/2000/svg" width="40" height="40" viewBox="0 0 40 40"><defs><style>.a{fill:none;}.b{fill:#dd4814;}</style></defs><g transform="translate(-451 -4929)"><rect class="a" width="40" height="40" transform="translate(451 4929)"/><g transform="translate(455.712 4929)"><path class="b" d="M14.463,0S16.8,3.58,10.847,9.209,0,20.127,0,27.888,6.4,39.275,9.727,40c0,0-4.437-2.26-4.1-7.165,0,0-.043-3.241,3.669-6.141,0,0-.939,3.625,2.432,3.966,0,0,1.92-.128,2.3-1.749A4.077,4.077,0,0,0,12.586,24.9a5.3,5.3,0,0,1,.171-7.591s-.9,2.516,4.181,5.459,6.869,6.312,7.338,7.89.768,6.482-5.034,9.34c0,0,9.941-2.218,11.263-11.515,0,0,1.365-8.615-7.808-13.519,0,0,.477,2.755-2.261,2.9-2.613.139-3.328-3.412-2.944-4.606s.811-3.113.811-3.113S20.1,4.736,14.463,0Z"/></g></g></svg>