<svg xmlns="http://www.w3.org/2000/svg" width="40" height="40" viewBox="0 0 40 40"><defs><style>.a{fill:none;}.b{fill:#0069ff;fill-rule:evenodd;}</style></defs><g transform="translate(-155 -5694)"><rect class="a" width="40" height="40" transform="translate(155 5694)"/><g transform="translate(155 5693.925)"><path class="b" d="M19.989,39.873v-7.72a12.192,12.192,0,0,0,11.442-16.68A11.734,11.734,0,0,0,24.538,8.58,12.411,12.411,0,0,0,7.72,20.022H0A19.974,19.974,0,0,1,26.33,1.274,19.521,19.521,0,0,1,39.013,13.819,19.894,19.894,0,0,1,19.989,39.873" transform="translate(0 0)"/><path class="b" d="M19.61,25.482H11.89V17.9h7.72v7.582M11.89,31.41H5.963V25.482H11.89V31.41h0M5.963,25.482H1V20.519H5.963v4.963" transform="translate(0.379 6.671)"/></g></g></svg>