<svg xmlns="http://www.w3.org/2000/svg" width="40" height="40" viewBox="0 0 40 40"><defs><style>.a{fill:#512bd4;}.b{fill:#fff;}</style></defs><rect class="a" width="40" height="40"/><path class="b" d="M70.685,270.976a1.007,1.007,0,0,1-.721-.283.955.955,0,0,1,0-1.385,1.051,1.051,0,0,1,1.45,0,.94.94,0,0,1,0,1.385A1.016,1.016,0,0,1,70.685,270.976Z" transform="translate(-63.555 -245.421)"/><path class="b" d="M120.747,181.4h-1.838l-4.843-7.641a3.419,3.419,0,0,1-.3-.6h-.042a10.971,10.971,0,0,1,.057,1.428V181.4h-1.626V171h1.959l4.681,7.46q.3.464.382.638h.028a9.473,9.473,0,0,1-.071-1.4V171h1.619Z" transform="translate(-102.311 -156)"/><path class="b" d="M241.253,181.4h-5.692V171h5.466v1.464h-3.783v2.943h3.486v1.457h-3.486v3.074h4.009Z" transform="translate(-214.898 -156)"/><path class="b" d="M314.645,172.464h-2.913V181.4h-1.683v-8.932h-2.906V171h7.5Z" transform="translate(-280.201 -156)"/></svg>