<svg xmlns="http://www.w3.org/2000/svg" xmlns:xlink="http://www.w3.org/1999/xlink" width="40" height="40" viewBox="0 0 40 40"><defs><style>.a{fill:none;}.b{clip-path:url(#a);}</style><clipPath id="a"><rect class="a" width="35.566" height="40"/></clipPath></defs><g transform="translate(-297 -900.582)"><rect class="a" width="40" height="40" transform="translate(297 900.582)"/><g transform="translate(299.217 900.582)"><g class="b"><path d="M19.163,1.625a2.557,2.557,0,0,0-2.564.006L2.618,9.78a2.565,2.565,0,0,0-1.267,2.2L1.278,28.16a2.561,2.561,0,0,0,1.278,2.224l13.849,8a2.56,2.56,0,0,0,2.565-.006L32.95,30.22a2.568,2.568,0,0,0,1.267-2.2l.071-16.184a2.561,2.561,0,0,0-1.278-2.224ZM19.8.519l13.849,8a3.83,3.83,0,0,1,1.916,3.336L35.5,28.03a3.833,3.833,0,0,1-1.9,3.294L19.613,39.478a3.832,3.832,0,0,1-3.847.009l-13.849-8A3.835,3.835,0,0,1,0,28.154L.073,11.97a3.832,3.832,0,0,1,1.9-3.294L15.954.523A3.83,3.83,0,0,1,19.8.514M7.61,22.359a4.584,4.584,0,0,0,.721,1.549,4.136,4.136,0,0,0,1.25,1.132,3.5,3.5,0,0,0,1.82.45,3.625,3.625,0,0,0,2.552-.851,4.481,4.481,0,0,0,1.279-2.264h1.489a5.956,5.956,0,0,1-1.736,3.214A5.182,5.182,0,0,1,11.4,26.724a5.681,5.681,0,0,1-2.494-.509A4.577,4.577,0,0,1,7.2,24.82a6.024,6.024,0,0,1-.981-2.055A9.32,9.32,0,0,1,5.9,20.3a8.828,8.828,0,0,1,.319-2.362A6.313,6.313,0,0,1,7.2,15.864,4.917,4.917,0,0,1,8.91,14.4a5.266,5.266,0,0,1,2.494-.555A4.819,4.819,0,0,1,15.6,15.981a6.436,6.436,0,0,1,.935,2.2,9.686,9.686,0,0,1,.235,2.516H7.385a6.625,6.625,0,0,0,.225,1.667m7.375-4.55a4.518,4.518,0,0,0-.769-1.382,3.829,3.829,0,0,0-1.2-.97A3.466,3.466,0,0,0,11.4,15.1a3.517,3.517,0,0,0-1.625.365,3.834,3.834,0,0,0-1.206.97,4.839,4.839,0,0,0-.792,1.4,6.9,6.9,0,0,0-.391,1.617h7.895a5.441,5.441,0,0,0-.3-1.625m2.75-3.615h1.866l3.475,4.633,3.4-4.633H28.35l-4.4,5.836L28.7,26.4h-1.89l-3.83-5.125L19.225,26.4H17.384l4.725-6.334Z" transform="translate(0 0)"/></g></g></g></svg>