<svg xmlns="http://www.w3.org/2000/svg" width="40" height="40" viewBox="0 0 40 40"><defs><style>.a{fill:none;}.b{fill:#44d1fd;}.c{fill:#1fbcfd;}.d{fill:#08589c;}</style></defs><g transform="translate(-155 -5694)"><rect class="a" width="40" height="40" transform="translate(155 5694)"/><g transform="translate(-56.19)"><path class="b" d="M19.985.014,32.38,0,11.585,20.784,6.166,26.173,0,20ZM19.87,18.571c.161-.212.457-.108.681-.135l11.818,0L21.6,29.2l-6.2-6.16Z" transform="translate(215 5694)"/><path class="c" d="M60.77,157.981l6.178-6.171,6.2,6.16.026.027-6.222,6.165Z" transform="translate(163.453 5565.229)"/><path class="d" d="M101.49,198.745l6.222-6.165,10.749,10.76c-4.049.009-8.1,0-12.144.006-.231.052-.373-.159-.521-.29Z" transform="translate(128.912 5530.646)"/></g></g></svg>