<svg xmlns="http://www.w3.org/2000/svg" width="40" height="40" viewBox="0 0 40 40"><defs><style>.a{fill:#639;}.b{fill:#fff;}</style></defs><circle class="a" cx="20" cy="20" r="20"/><path class="b" d="M7.945,32.055A16.776,16.776,0,0,1,3,20.309L19.845,37A17.543,17.543,0,0,1,7.945,32.055Zm15.764,4.482L3.464,16.291A16.989,16.989,0,0,1,33.755,9.955l-2.318,2.009A14.268,14.268,0,0,0,20,6.091,14.056,14.056,0,0,0,6.864,15.364L24.636,33.136A14.011,14.011,0,0,0,33.6,23.091H26.182V20H37A17.048,17.048,0,0,1,23.709,36.536Z"/></svg>