<svg xmlns="http://www.w3.org/2000/svg" width="40" height="40" viewBox="0 0 40 40"><defs><style>.a{fill:none;}.b{fill:#00acd7;}</style></defs><g transform="translate(-155 -5017)"><rect class="a" width="40" height="40" transform="translate(155 5017)"/><g transform="translate(155 5029.562)"><g transform="translate(2.941 3.77)"><path class="b" d="M15.178,20.221c-.078,0-.1-.039-.058-.1l.409-.526a.279.279,0,0,1,.214-.1H22.7c.078,0,.1.058.058.117l-.331.506a.3.3,0,0,1-.195.117Z" transform="translate(-15.1 -19.5)"/></g><g transform="translate(0 5.562)"><g transform="translate(0)"><path class="b" d="M.078,29.421c-.078,0-.1-.039-.058-.1L.428,28.8a.279.279,0,0,1,.214-.1H9.523a.09.09,0,0,1,.1.117l-.156.467a.17.17,0,0,1-.175.117Z" transform="translate(0 -28.7)"/></g></g><g transform="translate(4.713 7.354)"><path class="b" d="M24.278,38.621c-.078,0-.1-.058-.058-.117l.273-.487a.258.258,0,0,1,.195-.117h3.9c.078,0,.117.058.117.136l-.039.467a.146.146,0,0,1-.136.136Z" transform="translate(-24.2 -37.9)"/></g><g transform="translate(10.617 -0.034)"><g transform="translate(0 0)"><path class="b" d="M68.9,4.14c-1.227.312-2.064.545-3.272.857-.292.078-.312.1-.565-.195a2.607,2.607,0,0,0-.915-.74,3.386,3.386,0,0,0-3.525.292,4.142,4.142,0,0,0-1.986,3.7,3.053,3.053,0,0,0,2.629,3.058,3.594,3.594,0,0,0,3.311-1.285c.175-.214.331-.448.526-.721H61.348c-.409,0-.506-.253-.37-.584.253-.6.721-1.616.993-2.123a.526.526,0,0,1,.487-.312h7.089c-.039.526-.039,1.052-.117,1.578a8.306,8.306,0,0,1-1.6,3.817,8.113,8.113,0,0,1-5.55,3.311,6.9,6.9,0,0,1-5.239-1.285A6.117,6.117,0,0,1,54.57,9.184a7.644,7.644,0,0,1,1.655-5.706A8.643,8.643,0,0,1,61.679.109a6.711,6.711,0,0,1,5.161.954A6.1,6.1,0,0,1,69.1,3.809C69.216,3.984,69.138,4.082,68.9,4.14Z" transform="translate(-54.515 0.034)"/><g transform="translate(13.882 0.18)"><path class="b" d="M132.75,15.656A7.306,7.306,0,0,1,128,13.942a6.108,6.108,0,0,1-2.1-3.759A7.435,7.435,0,0,1,127.472,4.3a8.164,8.164,0,0,1,5.453-3.252,7.224,7.224,0,0,1,5.55.993,6.062,6.062,0,0,1,2.746,4.343,7.518,7.518,0,0,1-2.24,6.6,8.924,8.924,0,0,1-4.674,2.493C133.782,15.578,133.256,15.6,132.75,15.656Zm4.635-7.868a5.6,5.6,0,0,0-.058-.643,3.208,3.208,0,0,0-3.973-2.59,4.254,4.254,0,0,0-3.408,3.389,3.207,3.207,0,0,0,1.792,3.681,3.57,3.57,0,0,0,3.174-.117A4.262,4.262,0,0,0,137.385,7.788Z" transform="translate(-125.796 -0.892)"/></g></g></g></g></g></svg>