<svg xmlns="http://www.w3.org/2000/svg" width="40" height="40" viewBox="0 0 40 40"><defs><style>.a{fill:none;}.b{fill:#ea4335;}.c{fill:#4285f4;}.d{fill:#34a853;}.e{fill:#fbbc05;}</style></defs><g transform="translate(-155 -5694)"><rect class="a" width="40" height="40" transform="translate(155 5694)"/><g transform="translate(153.955 5697.761)"><path class="b" d="M25.556,9.008h1.22l3.477-3.477.171-1.476A15.628,15.628,0,0,0,5,11.68a1.891,1.891,0,0,1,1.22-.073l6.954-1.147s.354-.586.537-.549a8.674,8.674,0,0,1,11.87-.9Z" transform="translate(0.87 0)"/><path class="c" d="M32.639,10.973A15.664,15.664,0,0,0,27.918,3.36l-4.88,4.88a8.674,8.674,0,0,1,3.184,6.881v.866a4.343,4.343,0,1,1,0,8.686H17.536l-.866.878V30.76l.866.866h8.686a11.3,11.3,0,0,0,6.417-20.654Z" transform="translate(3.437 0.707)"/><path class="d" d="M11.48,27.814h8.686V20.86H11.48a4.318,4.318,0,0,1-1.792-.39l-1.221.378-3.5,3.477-.3,1.22a11.236,11.236,0,0,0,6.82,2.269Z" transform="translate(0.795 4.471)"/><path class="e" d="M12.275,8a11.3,11.3,0,0,0-6.82,20.251l5.038-5.038a4.343,4.343,0,1,1,5.746-5.746l5.038-5.038a11.285,11.285,0,0,0-9-4.428Z" transform="translate(0 1.728)"/></g></g></svg>