<svg xmlns="http://www.w3.org/2000/svg" width="40" height="40" viewBox="0 0 40 40"><defs><style>.a{fill:none;}.b{fill:#430098;fill-rule:evenodd;}</style></defs><g transform="translate(-155 -5694)"><rect class="a" width="40" height="40" transform="translate(155 5694)"/><path class="b" d="M32.4,0A3.6,3.6,0,0,1,36,3.6h0V36.4A3.6,3.6,0,0,1,32.4,40H3.6A3.6,3.6,0,0,1,0,36.4H0V3.6A3.6,3.6,0,0,1,3.6,0H32.4Zm0,2H3.6A1.6,1.6,0,0,0,2,3.6H2V36.4A1.6,1.6,0,0,0,3.6,38H32.4A1.6,1.6,0,0,0,34,36.4h0V3.6A1.6,1.6,0,0,0,32.4,2ZM9.5,26,14,30,9.5,34Zm4-20V17.355A25.314,25.314,0,0,1,21,16a6.428,6.428,0,0,1,4.758,1.788,6.248,6.248,0,0,1,1.742,4.17V34h-4V22.055C23.48,21.122,23.031,20,21,20a24.922,24.922,0,0,0-8.642,2.051l-.033.015L9.5,23.346V6Zm14,0a11.718,11.718,0,0,1-3,6.5h-4a15.549,15.549,0,0,0,3-6.5h4Z" transform="translate(157 5694)"/></g></svg>