<svg xmlns="http://www.w3.org/2000/svg" width="40" height="40" viewBox="0 0 40 40"><defs><style>.a{fill:none;}.b{fill:#3498db;}.c{fill:#3880ff;}.d{fill:#ef3e29;}.e{fill:#ee350f;}.f{fill:#70e1fc;}.g,.h{fill:#fff;}.h{fill-rule:evenodd;}</style></defs><g transform="translate(-1043 -5606)"><rect class="a" width="40" height="40" transform="translate(1043 5606)"/><g transform="translate(89.082 5278.429)"><circle class="b" cx="7.022" cy="7.022" r="7.022" transform="translate(953.918 337.636)"/><circle class="c" cx="7.022" cy="7.022" r="7.022" transform="translate(979.875 337.636)"/><circle class="d" cx="7.022" cy="7.022" r="7.022" transform="translate(974.917 352.893)"/><circle class="e" cx="7.022" cy="7.022" r="7.022" transform="translate(958.875 352.893)"/><circle class="f" cx="7.022" cy="7.022" r="7.022" transform="translate(966.896 328.207)"/><g transform="translate(983.386 341.147)"><g transform="translate(0)"><path class="g" d="M1134.413,412.84a1.593,1.593,0,1,0,1.593,1.593h0a1.593,1.593,0,0,0-1.593-1.593Z" transform="translate(-1130.884 -410.924)"/><circle class="g" cx="0.728" cy="0.728" r="0.728" transform="translate(5.084 0.604)"/><path class="g" d="M1128.495,403.982l-.029-.066-.047.057a1.108,1.108,0,0,1-.437.3l-.048.019.019.047a2.793,2.793,0,0,1,.219,1.094,2.855,2.855,0,1,1-1.631-2.582l.043.019.019-.047a1.089,1.089,0,0,1,.323-.423l.057-.047-.067-.033a3.51,3.51,0,1,0,1.58,1.664Z" transform="translate(-1121.789 -401.923)"/></g></g><g transform="translate(969.974 331.696)"><circle class="g" cx="0.711" cy="0.711" r="0.711" transform="translate(3.233 2.8)"/><path class="g" d="M1049.33,359.19a7.252,7.252,0,0,1,2.664.45c.6.245.953.56.953.843s-.356.6-.953.842a8.113,8.113,0,0,1-5.329,0c-.6-.245-.953-.56-.953-.842s.356-.6.953-.843A7.256,7.256,0,0,1,1049.33,359.19Zm0-.327c-2.178,0-3.943.725-3.943,1.619s1.765,1.619,3.943,1.619,3.944-.725,3.944-1.619S1051.509,358.863,1049.33,358.863Z" transform="translate(-1045.387 -356.971)"/><path class="g" d="M1057.608,350.949a7.251,7.251,0,0,1,.943,2.532c.086.639-.009,1.1-.253,1.246s-.7-.009-1.206-.4a8.114,8.114,0,0,1-2.664-4.615c-.086-.639.009-1.1.254-1.246s.7.009,1.206.4A7.257,7.257,0,0,1,1057.608,350.949Zm.283-.163c-1.089-1.886-2.6-3.053-3.374-2.606s-.519,2.339.57,4.225,2.6,3.053,3.374,2.606S1058.98,352.672,1057.891,350.786Z" transform="translate(-1052.546 -348.085)"/><path class="g" d="M1057.607,352.242a7.256,7.256,0,0,1-1.722,2.083c-.51.394-.961.545-1.206.4s-.34-.607-.254-1.246a8.118,8.118,0,0,1,2.665-4.615c.51-.394.961-.545,1.206-.4s.34.608.253,1.246A7.252,7.252,0,0,1,1057.607,352.242Zm.283.163c1.089-1.886,1.344-3.778.57-4.225s-2.285.72-3.374,2.606-1.344,3.777-.57,4.225,2.285-.72,3.374-2.606Z" transform="translate(-1052.544 -348.085)"/></g><g transform="translate(978.364 356.706)"><path class="g" d="M1099.485,505.01a1.6,1.6,0,0,1,.4.638c.318,1.12-.863,2.409-2.6,2.9s-3.417.019-3.736-1.1a1.594,1.594,0,0,1,0-.752c.088-.388-.544.449-.317,1.252.369,1.3,2.17,1.808,4.179,1.236s3.369-1.98,3-3.277c-.228-.8-1.205-1.182-.928-.9" transform="translate(-1093.183 -502.395)"/><path class="g" d="M1112.464,490.558c-1.089,1.146.5,3.6-1.87,4.756,1.277-1.7.283-3.627.579-4.212s1.292-.543,1.292-.543m-1.743.447c-.891,1.3-.05,3.332-.6,4.108a.663.663,0,0,1-1.207-.006c1.245.663-.786-3.064,1.812-4.1" transform="translate(-1106.149 -490.557)"/><path class="g" d="M1101.487,499.243c-.652.688-1.675.606-2.921.282.551-.66.214-1.551.357-2.377a2.512,2.512,0,0,1,1.831-1.731,3.026,3.026,0,0,0-.817,3.06c.325,1.1,1.551.766,1.551.766" transform="translate(-1097.621 -494.563)"/></g><path class="h" d="M979.292,405.127l-1.664-2.9a.623.623,0,0,0-.528-.306h-3.329a.624.624,0,0,0-.528.306l-1.664,2.9a.63.63,0,0,0,0,.612l1.664,2.9a.626.626,0,0,0,.528.306H977.1a.625.625,0,0,0,.528-.306l1.664-2.9A.634.634,0,0,0,979.292,405.127Zm-2.236,2.121h-.574a.076.076,0,0,1-.066-.039l-.971-1.741a.084.084,0,0,1-.009-.028.068.068,0,0,1-.009.028l-.974,1.741a.077.077,0,0,1-.062.039h-.575a.079.079,0,0,1-.065-.112l.951-1.7-.951-1.705a.079.079,0,0,1,.051-.11h.589a.074.074,0,0,1,.063.037l.974,1.74a.075.075,0,0,1,.009.028.1.1,0,0,1,.009-.028l.971-1.74a.076.076,0,0,1,.066-.037h.574a.078.078,0,0,1,.065.11l-.951,1.705.951,1.7A.079.079,0,0,1,977.056,407.249Z" transform="translate(-14.496 -60.776)"/><path class="h" d="M1004.99,495.794l3.684-5.261a3.512,3.512,0,0,1-3.005,5.327,3.53,3.53,0,0,1-.679-.065Zm-1.575-6.137a3.511,3.511,0,0,1,4.508,0Zm4.971.468h-5.434a3.5,3.5,0,0,0-.731,1.558l-.006.034c0,.012,0,.025-.007.037s-.006.034-.008.051q-.01.061-.017.123c0,.006,0,.011,0,.017a3.465,3.465,0,0,0-.023.4c0,.055,0,.109,0,.163,0,.028,0,.057.005.086s0,.033,0,.049a3.513,3.513,0,0,0,2.339,3.017l3.877-5.537Z" transform="translate(-39.772 -132.434)"/></g></g></svg>