<svg xmlns="http://www.w3.org/2000/svg" width="40" height="40" viewBox="0 0 40 40"><defs><style>.a{fill:none;}.b{fill:#3880ff;}</style></defs><g transform="translate(-747 -5606)"><rect class="a" width="40" height="40" transform="translate(747 5606)"/><g transform="translate(746.996 5605.996)"><g transform="translate(0.004 0.004)"><path class="b" d="M17.61,8.445a9.077,9.077,0,1,0,9.077,9.077h0A9.077,9.077,0,0,0,17.61,8.445Z" transform="translate(2.5 2.475)"/><circle class="b" cx="4.146" cy="4.146" r="4.146" transform="translate(28.97 3.441)"/><path class="b" d="M38.214,11.736l-.163-.379-.27.326a6.315,6.315,0,0,1-2.493,1.706l-.272.109.109.27A15.911,15.911,0,0,1,36.372,20,16.271,16.271,0,1,1,27.078,5.287l.244.109.107-.27a6.209,6.209,0,0,1,1.843-2.41l.325-.27-.379-.19a20,20,0,1,0,9,9.483Z" transform="translate(-0.004 -0.004)"/></g></g></g></svg>