<svg xmlns="http://www.w3.org/2000/svg" width="40" height="40" viewBox="0 0 40 40"><defs><style>.a{fill:none;}.b{fill:#030708;}</style></defs><g transform="translate(-451 -5606)"><rect class="a" width="40" height="40" transform="translate(451 5606)"/><path class="b" d="M16.546,11.493c-1.58,0-4.026-1.8-6.6-1.732a9.747,9.747,0,0,0-8.268,5.021c-3.528,6.125-.909,15.172,2.532,20.15C5.9,37.357,7.888,40.085,10.529,40c2.532-.108,3.485-1.645,6.558-1.645,3.052,0,3.918,1.645,6.6,1.58,2.727-.043,4.459-2.467,6.125-4.913a21.752,21.752,0,0,0,2.77-5.692,8.83,8.83,0,0,1-5.368-8.095,8.979,8.979,0,0,1,4.329-7.6,9.369,9.369,0,0,0-7.316-3.961C20.9,9.415,18.1,11.493,16.546,11.493Zm5.627-5.108A8.75,8.75,0,0,0,24.251,0a9,9,0,0,0-5.887,3.03,8.369,8.369,0,0,0-2.121,6.19,7.462,7.462,0,0,0,5.93-2.835" transform="translate(454.708 5606)"/></g></svg>