<svg xmlns="http://www.w3.org/2000/svg" width="40" height="40" viewBox="0 0 40 40"><defs><style>.a{fill:none;}.b{fill:#5382a1;}.c{fill:#f8981d;}</style></defs><g transform="translate(-1043 -4929)"><rect class="a" width="40" height="40" transform="translate(1043 4929)"/><g transform="translate(1033.737 4924.6)"><path class="b" d="M86.769,291.3s-1.531.884,1.089,1.186a22.612,22.612,0,0,0,8.281-.356,14.844,14.844,0,0,0,2.2,1.078c-7.828,3.364-17.726-.183-11.57-1.909" transform="translate(-62.748 -255.965)"/><path class="b" d="M76,250.7s-1.714,1.272.906,1.542a32.326,32.326,0,0,0,10.685-.518,4.715,4.715,0,0,0,1.65,1C79.778,255.5,69.233,252.954,76,250.7" transform="translate(-52.942 -219.743)"/><path class="c" d="M153.981,91.155c1.93,2.221-.507,4.216-.507,4.216s4.9-2.534,2.652-5.693c-2.1-2.954-3.709-4.421,5.014-9.478,0,0-13.694,3.418-7.16,10.955" transform="translate(-122.854 -67.627)"/><path class="b" d="M41.489,318.617s1.132.927-1.251,1.65c-4.518,1.369-18.815,1.779-22.783.054-1.423-.625,1.251-1.488,2.092-1.66a5.073,5.073,0,0,1,1.38-.151c-1.585-1.121-10.265,2.2-4.41,3.148,15.969,2.577,29.113-1.175,24.972-3.041" transform="translate(0 -280.037)"/><path class="b" d="M51.276,208.55s-7.267,1.725-2.577,2.351a53.9,53.9,0,0,0,9.618-.108c3.008-.259,6.027-.8,6.027-.8a13,13,0,0,0-1.833.981c-7.386,1.941-21.651,1.035-17.543-.949a13.993,13.993,0,0,1,6.308-1.477" transform="translate(-26.521 -182.133)"/><path class="b" d="M229.251,212.682c7.5-3.9,4.033-7.645,1.617-7.138a5.973,5.973,0,0,0-.863.226,1.372,1.372,0,0,1,.636-.5c4.787-1.682,8.475,4.971-1.542,7.6a.93.93,0,0,0,.151-.194" transform="translate(-191.449 -178.975)"/><path class="c" d="M111.935,4.4s4.162,4.162-3.946,10.556c-6.491,5.132-1.477,8.055,0,11.4-3.8-3.418-6.577-6.426-4.712-9.23,2.75-4.119,10.33-6.114,8.658-12.723" transform="translate(-78.662)"/><path class="b" d="M69.461,343.866c7.2.464,18.266-.259,18.524-3.666,0,0-.507,1.294-5.952,2.318a59.279,59.279,0,0,1-18.233.28c.011.011.927.766,5.661,1.067" transform="translate(-43.973 -299.592)"/></g></g></svg>