<svg xmlns="http://www.w3.org/2000/svg" xmlns:xlink="http://www.w3.org/1999/xlink" width="40" height="40" viewBox="0 0 40 40"><defs><style>.a{fill:none;}.b{fill:url(#a);}.c{fill:#6f1d20;}.d{fill:url(#b);}.e{fill:url(#c);}</style><linearGradient id="a" x1="0.003" y1="1.965" x2="1.415" y2="1.965" gradientUnits="objectBoundingBox"><stop offset="0" stop-color="#8c2529"/><stop offset="0.077" stop-color="#9f2c33"/><stop offset="0.254" stop-color="#c73a46"/><stop offset="0.396" stop-color="#df4353"/><stop offset="0.482" stop-color="#e84657"/><stop offset="0.575" stop-color="#df4353"/><stop offset="0.727" stop-color="#c73a46"/><stop offset="0.917" stop-color="#9f2c33"/><stop offset="1" stop-color="#8c2529"/></linearGradient><linearGradient id="b" x1="-0.554" y1="2.46" x2="0.958" y2="2.46" xlink:href="#a"/><linearGradient id="c" x1="-0.573" y1="4.158" x2="1.91" y2="4.158" xlink:href="#a"/></defs><g transform="translate(-451 -5439)"><rect class="a" width="40" height="40" transform="translate(451 5439)"/><g transform="translate(453.935 5439)"><path class="b" d="M21.8,5.414A75.336,75.336,0,0,1,8.692,21.777c-.558-4.73,1.52-13.152,1.52-13.152a15.158,15.158,0,0,0-7.088,7.724s-.9,8.391,5.6,19.666A17.04,17.04,0,0,1,.006,21.327,16.315,16.315,0,0,1,6.12,7.887,17.2,17.2,0,0,1,16.71,4.623a15.474,15.474,0,0,1,2.094.14L17.067,9.524c.155-.217,1.923-2.544,3.086-4.544,1.024-1.722,1.318-3.337,0-3.011-2.28.574-3.313,1.989-4.1,2.066-.665.065-.541-.043-.417-.182C17.788,1.247,27.257-4.063,21.8,5.414Z" transform="translate(0 0)"/><path class="c" d="M153.1,42.076c-1.163,2-2.931,4.327-3.086,4.544l1.737-4.761a12.237,12.237,0,0,1,1.349.217Z" transform="translate(-132.951 -37.097)"/><path class="d" d="M128.316,86.749a10.282,10.282,0,0,1-4.369-.915c-6.933-2.419-15.747-9.694-16.6-10.453a9.08,9.08,0,0,0,2.59,1.334c.729,0,6.545-8.375,10.174-16.859a16.716,16.716,0,0,1,6.243,22.8q-.183.321-.381.634a29.161,29.161,0,0,1-4.715-.744c1.5.7,2.9,1.334,4.017,1.753a3.713,3.713,0,0,0,2.28.434c.791-.372-.45-2.326-.326-2.528.124-.217.5-.993.5-.993S130.751,86.47,128.316,86.749Z" transform="translate(-95.134 -53.045)"/><path class="c" d="M234.351,260.052c-.217.341-.45.683-.7,1.008-1.117-.419-2.513-1.055-4.017-1.753A29.173,29.173,0,0,0,234.351,260.052Z" transform="translate(-203.511 -229.808)"/><path class="e" d="M81.224,236.712a16.882,16.882,0,0,1-4.358.574,16.554,16.554,0,0,1-4.575-.636h-.031a.8.8,0,0,0-.419.109c-.357.279-.109,2.481-.109,2.481a21.381,21.381,0,0,1-.993-3.117c-1.008-3.97-1.846-9.43-1.846-9.43s-1.365-2.326-.931-1.8C72.585,230.756,81.224,236.712,81.224,236.712Z" transform="translate(-60.155 -199.24)"/></g></g></svg>