<svg xmlns="http://www.w3.org/2000/svg" width="40" height="40" viewBox="0 0 40 40"><defs><style>.a{fill:none;}.b{fill:#fb503b;}</style></defs><g transform="translate(-1043 -4841)"><rect class="a" width="40" height="40" transform="translate(1043 4841)"/><g transform="translate(1042.999 4847.308)"><g transform="translate(0.001 0)"><path class="b" d="M39.848,12.793c-.265-.3-3.926-4.881-4.572-5.659s-.96-.637-1.357-.579-5.031.835-5.568.927-.877.306-.546.769c.294.412,3.34,4.73,4.011,5.681l-12.109,2.9L10.077.732C9.694.164,9.614-.035,8.742.005S1.187.6.711.64s-1,.252-.522,1.375S8.254,19.491,8.465,19.967a1.625,1.625,0,0,0,2.049.939c1.319-.317,5.894-1.511,8.394-2.166,1.321,2.392,4.015,7.244,4.513,7.939.665.928,1.123.775,2.144.465.8-.241,12.474-4.441,13-4.657s.851-.371.495-.9c-.262-.387-3.342-4.514-4.956-6.673,1.105-.294,5.035-1.34,5.454-1.454C40.046,13.331,40.113,13.091,39.848,12.793Zm-22.013,4.5c-.145.031-6.927,1.654-7.289,1.737s-.362.041-.4-.083S2.079,2.282,1.967,2.075s-.106-.371,0-.371S8.372,1.142,8.6,1.13s.2.035.282.176c0,0,8.885,15.337,9.04,15.606S17.979,17.263,17.834,17.294Zm19.122,3.584c.108.17.216.278-.124.4s-11.478,3.883-11.695,3.976-.387.124-.665-.278-3.9-6.673-3.9-6.673l11.807-3.072c.294-.093.387-.155.572.139s3.9,5.337,4.007,5.507Zm.757-8.383c-.265.058-4.6,1.133-4.6,1.133L29.568,8.764c-.1-.141-.182-.281.066-.314s4.277-.761,4.459-.8.339-.091.563.215,3.289,4.186,3.4,4.335-.083.24-.347.3Z" transform="translate(-0.001 0)"/></g></g></g></svg>