<svg xmlns="http://www.w3.org/2000/svg" width="40" height="40" viewBox="0 0 40 40"><defs><style>.a{fill:none;}.b{fill:#10aa50;}.c{fill:#b8c4c2;}.d{fill:#12924f;}</style></defs><g transform="translate(-1743 -5861)"><rect class="a" width="40" height="40" transform="translate(1743 5861)"/><g transform="translate(1753.828 5861.001)"><path class="b" d="M18.02,16.015c-2.154-9.354-6.646-11.845-7.784-13.6A18.887,18.887,0,0,1,8.99,0,2.429,2.429,0,0,1,8.1,1.985C6.651,3.246.544,8.154.021,18.784c-.477,9.907,7.4,16.014,8.446,16.645a2.348,2.348,0,0,0,2.246-.354,19.134,19.134,0,0,0,7.307-19.06" transform="translate(0 0)"/><path class="c" d="M17.027,58.5a18.808,18.808,0,0,1-.877,5.231s.354,2.323.585,4.769H17.6a41.824,41.824,0,0,1,.923-5.138C17.427,62.852,17.073,60.637,17.027,58.5Z" transform="translate(-7.868 -28.501)"/><path class="d" d="M19.536,35h0c-1.062-.492-1.369-2.784-1.415-4.923a102.067,102.067,0,0,0,.231-10.63C18.29,17.6,18.382,2.245,17.89,0c.338.754.723,1.492,1.138,2.215,1.138,1.77,5.585,4.262,7.707,13.661A19.352,19.352,0,0,1,19.536,35Z" transform="translate(-8.716)"/></g></g></svg>