<svg xmlns="http://www.w3.org/2000/svg" width="40" height="40" viewBox="0 0 40 40"><defs><style>.a{fill:none;}.b{fill:#5d87a1;}.b,.c{fill-rule:evenodd;}.c{fill:#00758f;}</style></defs><g transform="translate(-747 -5606)"><rect class="a" width="40" height="40" transform="translate(747 5606)"/><g transform="translate(647.787 5606.367)"><path class="b" d="M114.055,11.573a4.343,4.343,0,0,0-1.115.137v.055h.053a9.185,9.185,0,0,0,.871,1.116c.219.435.409.869.627,1.3.027-.026.053-.055.053-.055a1.527,1.527,0,0,0,.573-1.36,6.131,6.131,0,0,1-.327-.571c-.163-.272-.517-.408-.735-.626" transform="translate(-5.748 -4.846)"/><path class="c" d="M136.057,30.37a12.58,12.58,0,0,0-5.278.762c-.408.163-1.06.163-1.116.68.219.217.245.57.437.871a6.35,6.35,0,0,0,1.414,1.659c.571.435,1.143.869,1.742,1.25,1.06.656,2.258,1.035,3.29,1.688.6.38,1.2.87,1.8,1.279.3.217.487.572.869.706v-.082c-.191-.244-.245-.6-.434-.871-.272-.27-.544-.517-.817-.787a12.963,12.963,0,0,0-2.829-2.747c-.871-.6-2.777-1.416-3.129-2.42l-.055-.056a10.933,10.933,0,0,0,1.878-.438c.924-.244,1.767-.189,2.719-.433.436-.11.871-.246,1.308-.38V30.8c-.492-.489-.844-1.143-1.361-1.6A36.429,36.429,0,0,0,132,25.853c-.845-.544-1.933-.9-2.831-1.36-.325-.163-.868-.244-1.06-.518A10.918,10.918,0,0,1,127,21.881c-.788-1.495-1.551-3.153-2.23-4.734a29.092,29.092,0,0,0-1.387-3.1A27.428,27.428,0,0,0,112.851,3.872a13.04,13.04,0,0,0-3.481-1.116c-.681-.029-1.361-.081-2.041-.108a10.855,10.855,0,0,1-1.252-.953c-1.551-.979-5.549-3.1-6.692-.3C98.65,3.164,100.472,4.9,101.1,5.8a12.748,12.748,0,0,1,1.386,2.04c.191.463.245.953.437,1.442a32.428,32.428,0,0,0,1.415,3.646,12.861,12.861,0,0,0,1.005,1.685c.22.3.6.435.681.927a7.8,7.8,0,0,0-.627,2.04,11.985,11.985,0,0,0,.79,9.141c.434.68,1.469,2.177,2.857,1.6,1.224-.489.952-2.04,1.306-3.4.081-.329.027-.544.19-.762v.055c.38.761.762,1.493,1.116,2.258a15.524,15.524,0,0,0,3.538,3.644c.651.492,1.168,1.333,1.984,1.634v-.082h-.054a2.992,2.992,0,0,0-.626-.543,13.382,13.382,0,0,1-1.415-1.633,34.826,34.826,0,0,1-3.046-4.952c-.437-.845-.816-1.769-1.171-2.612-.163-.325-.163-.816-.435-.979a10.208,10.208,0,0,0-1.305,1.848,15.392,15.392,0,0,0-.763,4.11c-.108.028-.054,0-.108.054-.87-.217-1.169-1.115-1.5-1.874a11.772,11.772,0,0,1-.245-7.266c.19-.57,1.008-2.366.68-2.91-.164-.519-.708-.815-1.006-1.225a10.771,10.771,0,0,1-.979-1.741c-.653-1.523-.981-3.21-1.686-4.733a14.538,14.538,0,0,0-1.36-2.095A13.468,13.468,0,0,1,100.663,3c-.135-.3-.326-.79-.109-1.115a.436.436,0,0,1,.382-.355c.352-.3,1.359.081,1.713.245a13.82,13.82,0,0,1,2.693,1.36c.381.273.79.789,1.278.927h.572c.87.189,1.851.053,2.667.3a17.411,17.411,0,0,1,3.917,1.877,24.143,24.143,0,0,1,8.486,9.3c.327.625.464,1.2.763,1.848.572,1.336,1.28,2.7,1.849,4a17.884,17.884,0,0,0,1.933,3.646c.407.571,2.04.87,2.775,1.169a19.477,19.477,0,0,1,1.877.761c.925.571,1.848,1.224,2.72,1.851.434.326,1.795,1.006,1.877,1.551" transform="translate(0 0)"/></g></g></svg>