<svg xmlns="http://www.w3.org/2000/svg" width="40" height="40" viewBox="0 0 40 40"><g transform="translate(0.1 -0.022)"><path d="M18.589.034c-.094.016-.359.031-.609.063A20.042,20.042,0,0,0,.087,17.12,15.525,15.525,0,0,0-.1,20.028a14.3,14.3,0,0,0,.187,2.908A20.1,20.1,0,0,0,13.764,39.1a20.929,20.929,0,0,0,4.215.875c.609.063,3.216.063,3.825,0a20.172,20.172,0,0,0,7.2-2.11c.343-.172.406-.219.359-.266-.031-.031-1.5-1.985-3.247-4.361l-3.2-4.315L18.9,22.982c-2.186-3.252-4-5.925-4.012-5.925s-.031,2.626-.047,5.847c-.016,5.643-.016,5.862-.094,6a.852.852,0,0,1-.343.36c-.125.063-.234.078-.827.078h-.671l-.187-.109a.757.757,0,0,1-.265-.281l-.078-.172.016-7.847.016-7.847.125-.156a1.094,1.094,0,0,1,.3-.234c.156-.078.219-.094.906-.094.8,0,.937.031,1.14.266.062.063,2.233,3.33,4.824,7.269s6.136,9.317,7.884,11.959l3.169,4.8.156-.109a20.219,20.219,0,0,0,4.106-3.611,19.937,19.937,0,0,0,4.7-10.224,15.525,15.525,0,0,0,.187-2.908,14.3,14.3,0,0,0-.187-2.908A20.1,20.1,0,0,0,26.036.972,20.456,20.456,0,0,0,21.867.1C21.492.034,18.916,0,18.589.034Zm8.181,12.1a.77.77,0,0,1,.39.469c.031.109.047,2.282.031,7.175l-.016,7.035L25.942,24.9,24.693,23V17.886c0-3.3.016-5.159.047-5.252a.84.84,0,0,1,.39-.5c.156-.078.219-.094.827-.094C26.535,12.055,26.645,12.055,26.77,12.133Z" transform="translate(0 0)"/></g></svg>