<svg xmlns="http://www.w3.org/2000/svg" xmlns:xlink="http://www.w3.org/1999/xlink" width="40" height="40" viewBox="0 0 40 40"><defs><style>.a{fill:none;}.b{fill:url(#a);}.c{fill:url(#b);}.d{fill:url(#c);}</style><linearGradient id="a" x1="0.727" y1="0.092" x2="0.273" y2="0.908" gradientUnits="objectBoundingBox"><stop offset="0.3" stop-color="#3e863d"/><stop offset="0.5" stop-color="#55934f"/><stop offset="0.8" stop-color="#5aad45"/></linearGradient><linearGradient id="b" x1="0.04" y1="0.801" x2="0.973" y2="0.209" gradientUnits="objectBoundingBox"><stop offset="0.57" stop-color="#3e863d"/><stop offset="0.72" stop-color="#619857"/><stop offset="1" stop-color="#76ac64"/></linearGradient><linearGradient id="c" y1="0.5" x2="1" y2="0.5" gradientUnits="objectBoundingBox"><stop offset="0.16" stop-color="#6bbf47"/><stop offset="0.38" stop-color="#79b461"/><stop offset="0.47" stop-color="#75ac64"/><stop offset="0.7" stop-color="#659e5a"/><stop offset="0.9" stop-color="#3e863d"/></linearGradient></defs><g transform="translate(-155 -4841)"><rect class="a" width="40" height="40" transform="translate(155 4841)"/><g transform="translate(157.43 4841)"><g transform="translate(0 0)"><path class="b" d="M16.625.253.947,9.3A1.892,1.892,0,0,0,0,10.941v18.11a1.892,1.892,0,0,0,.948,1.64l15.678,9.056a1.9,1.9,0,0,0,1.894,0L34.2,30.691a1.9,1.9,0,0,0,.945-1.64V10.941a1.892,1.892,0,0,0-.949-1.64L18.518.253a1.906,1.906,0,0,0-1.9,0" transform="translate(0 0)"/><path class="c" d="M4.72,30.8a1.9,1.9,0,0,0,.558.49l13.448,7.768,2.24,1.288a1.9,1.9,0,0,0,1.092.247,1.939,1.939,0,0,0,.372-.068L38.965,10.244a1.876,1.876,0,0,0-.441-.35L28.259,3.967,22.833.845a1.975,1.975,0,0,0-.491-.2Z" transform="translate(-4.332 -0.594)"/><path class="d" d="M28.448.048a1.912,1.912,0,0,0-.757.243L12.058,9.314l16.857,30.7a1.88,1.88,0,0,0,.674-.232l15.677-9.056a1.9,1.9,0,0,0,.915-1.293L29,.079a1.968,1.968,0,0,0-.383-.038q-.078,0-.156.007" transform="translate(-11.066 -0.038)"/></g></g></g></svg>