<svg xmlns="http://www.w3.org/2000/svg" xmlns:xlink="http://www.w3.org/1999/xlink" width="40" height="40" viewBox="0 0 40 40"><defs><style>.a{fill:none;}.b{clip-path:url(#a);}.c{fill:url(#b);}.d{fill:#777bb3;}.e{fill:#fff;}</style><clipPath id="a"><path d="M14.375-373.733c0,5.808,8.955,10.517,20,10.517h0c11.045,0,20-4.709,20-10.517h0c0-5.808-8.955-10.517-20-10.517h0c-11.045,0-20,4.709-20,10.517" transform="translate(-14.375 384.25)"/></clipPath><radialGradient id="b" cx="-1.703" cy="104.113" r="1.561" gradientTransform="translate(-0.729 0) scale(0.526 1)" gradientUnits="objectBoundingBox"><stop offset="0" stop-color="#aeb2d5"/><stop offset="0.3" stop-color="#aeb2d5"/><stop offset="0.75" stop-color="#484c89"/><stop offset="1" stop-color="#484c89"/></radialGradient></defs><g transform="translate(-747 -4841)"><rect class="a" width="40" height="40" transform="translate(747 4841)"/><g transform="translate(732.625 5234.733)"><g transform="translate(14.375 -384.25)"><g transform="translate(0 0)"><g class="b"><path class="c" d="M14.375-373.733c0,5.808,8.955,10.517,20,10.517h0c11.045,0,20-4.709,20-10.517h0c0-5.808-8.955-10.517-20-10.517h0c-11.045,0-20,4.709-20,10.517" transform="translate(-14.375 384.25)"/></g></g></g><g transform="translate(15.156 -383.466)"><g transform="translate(0 0)"><path class="d" d="M-312.906-317.028c10.611,0,19.219-4.362,19.219-9.736s-8.608-9.736-19.219-9.736-19.219,4.354-19.219,9.736,8.608,9.736,19.219,9.736" transform="translate(332.125 336.5)"/></g></g><g transform="translate(20.243 -381.621)"><g transform="translate(0.219 3.02)"><path d="M-77.814-98.924a3.185,3.185,0,0,0,1.939-.477,2.6,2.6,0,0,0,.832-1.62,1.709,1.709,0,0,0-.159-1.468,2.147,2.147,0,0,0-1.577-.412h-1.4l-.774,3.978Zm-4.564,4.9a.216.216,0,0,1-.166-.08.2.2,0,0,1-.043-.181l2.047-10.546a.216.216,0,0,1,.21-.174h4.42a3.864,3.864,0,0,1,3.067,1.121,3.509,3.509,0,0,1,.6,3.1,4.906,4.906,0,0,1-.528,1.476,4.752,4.752,0,0,1-.977,1.222,4.348,4.348,0,0,1-1.606.969,7.322,7.322,0,0,1-2.213.282h-1.787l-.514,2.626a.216.216,0,0,1-.21.174h-2.3Z" transform="translate(82.594 105)"/></g><g transform="translate(0 2.803)"><path class="e" d="M-78.427-41.218h1.215c.969,0,1.309.21,1.425.34a1.607,1.607,0,0,1,.1,1.288,2.4,2.4,0,0,1-.752,1.483,2.986,2.986,0,0,1-1.8.434h-.868Zm2.083-2.532h-4.42a.433.433,0,0,0-.427.354l-2.047,10.546a.436.436,0,0,0,.094.362.422.422,0,0,0,.333.159h2.3a.433.433,0,0,0,.427-.354l.477-2.452H-78a7.507,7.507,0,0,0,2.278-.3,4.6,4.6,0,0,0,1.693-1.013,5.034,5.034,0,0,0,1.02-1.28,5.149,5.149,0,0,0,.557-1.541,3.706,3.706,0,0,0-.651-3.291,4.121,4.121,0,0,0-3.241-1.193m-3.3,6.51h1.4a3.39,3.39,0,0,0,2.069-.521,2.77,2.77,0,0,0,.919-1.75,1.911,1.911,0,0,0-.21-1.656,2.323,2.323,0,0,0-1.743-.485h-1.57l-.861,4.412m3.3-6.076a3.651,3.651,0,0,1,2.908,1.049,3.279,3.279,0,0,1,.55,2.922,4.746,4.746,0,0,1-.506,1.41,4.755,4.755,0,0,1-.933,1.172,4.071,4.071,0,0,1-1.526.919A7.415,7.415,0,0,1-78-35.576h-1.967l-.543,2.807h-2.3l2.054-10.546h4.412" transform="translate(83.244 43.75)"/></g><g transform="translate(10.002 0.213)"><path d="M-95.008-178.77a.216.216,0,0,1-.166-.08.2.2,0,0,1-.043-.181l.9-4.665a1.156,1.156,0,0,0-.058-.9c-.08-.08-.3-.217-.984-.217H-97l-1.143,5.866a.216.216,0,0,1-.21.174h-2.278a.216.216,0,0,1-.166-.08.2.2,0,0,1-.043-.181l2.047-10.546a.216.216,0,0,1,.21-.174H-96.3a.216.216,0,0,1,.166.08.2.2,0,0,1,.043.181l-.492,2.546h1.765a4.135,4.135,0,0,1,2.792.723,2.41,2.41,0,0,1,.5,2.365l-.955,4.911a.21.21,0,0,1-.21.174Z" transform="translate(100.844 189.75)"/></g><g transform="translate(9.782)"><path class="e" d="M-77.485,0h-2.278a.433.433,0,0,0-.427.354L-82.237,10.9a.436.436,0,0,0,.094.362.433.433,0,0,0,.333.159h2.278a.433.433,0,0,0,.427-.354L-78,5.382h1.461c.68,0,.817.145.825.152.043.043.094.246.007.709l-.911,4.651a.436.436,0,0,0,.094.362.432.432,0,0,0,.333.159h2.315a.433.433,0,0,0,.427-.354l.955-4.9a2.613,2.613,0,0,0-.571-2.568A4.278,4.278,0,0,0-76,2.807h-1.5l.448-2.293a.436.436,0,0,0-.094-.362A.438.438,0,0,0-77.485,0m0,.434-.542,2.807H-76a3.963,3.963,0,0,1,2.64.665,2.2,2.2,0,0,1,.434,2.163l-.955,4.9H-76.19l.9-4.665A1.267,1.267,0,0,0-75.4,5.222a1.587,1.587,0,0,0-1.143-.289h-1.823l-1.172,6.04h-2.278L-79.764.434h2.278" transform="translate(82.244)"/></g><g transform="translate(18.144 3.02)"><path d="M-77.814-98.924a3.185,3.185,0,0,0,1.939-.477,2.6,2.6,0,0,0,.832-1.62,1.709,1.709,0,0,0-.159-1.468,2.147,2.147,0,0,0-1.577-.412h-1.4l-.774,3.978Zm-4.564,4.9a.216.216,0,0,1-.166-.08.2.2,0,0,1-.043-.181l2.047-10.546a.216.216,0,0,1,.21-.174h4.42a3.864,3.864,0,0,1,3.067,1.121,3.509,3.509,0,0,1,.6,3.1,4.906,4.906,0,0,1-.528,1.476,4.752,4.752,0,0,1-.977,1.222,4.348,4.348,0,0,1-1.606.969,7.322,7.322,0,0,1-2.213.282h-1.787l-.514,2.626a.216.216,0,0,1-.21.174h-2.3Z" transform="translate(82.594 105)"/></g><g transform="translate(17.925 2.803)"><path class="e" d="M-78.427-41.218h1.215c.969,0,1.309.21,1.425.34a1.607,1.607,0,0,1,.1,1.288,2.4,2.4,0,0,1-.752,1.483,2.986,2.986,0,0,1-1.8.434h-.868Zm2.083-2.532h-4.42a.433.433,0,0,0-.427.354l-2.047,10.546a.436.436,0,0,0,.094.362.422.422,0,0,0,.333.159h2.3a.433.433,0,0,0,.427-.354l.477-2.452H-78a7.507,7.507,0,0,0,2.278-.3,4.6,4.6,0,0,0,1.693-1.013,5.034,5.034,0,0,0,1.02-1.28,5.149,5.149,0,0,0,.557-1.541,3.706,3.706,0,0,0-.651-3.291,4.121,4.121,0,0,0-3.241-1.193m-3.3,6.51h1.4a3.39,3.39,0,0,0,2.069-.521,2.77,2.77,0,0,0,.919-1.75,1.911,1.911,0,0,0-.21-1.656,2.323,2.323,0,0,0-1.743-.485h-1.57l-.861,4.412m3.3-6.076a3.651,3.651,0,0,1,2.908,1.049,3.284,3.284,0,0,1,.55,2.922,4.746,4.746,0,0,1-.506,1.41,4.755,4.755,0,0,1-.933,1.172,4.071,4.071,0,0,1-1.526.919A7.415,7.415,0,0,1-78-35.576h-1.967l-.543,2.807h-2.3l2.054-10.546h4.412" transform="translate(83.244 43.75)"/></g></g></g></g></svg>