<svg xmlns="http://www.w3.org/2000/svg" width="40" height="40" viewBox="0 0 40 40"><defs><style>.a,.d{fill:none;}.b{fill:#336791;}.c{fill:#fff;}.d{stroke:#fff;stroke-linecap:round;stroke-linejoin:round;stroke-width:3px;}</style></defs><g transform="translate(-2039 -5861)"><rect class="a" width="40" height="40" transform="translate(2039 5861)"/><g transform="translate(2039.586 5861.114)"><g transform="translate(0.046 -0.114)"><path d="M46.452,46.136c.251-2.119.18-2.434,1.76-2.083l.4.036a9.208,9.208,0,0,0,3.736-.629c2.012-.934,3.2-2.488,1.221-2.074-4.517.934-4.831-.6-4.831-.6C53.51,33.707,55.5,24.726,53.78,22.526c-4.7-6-12.824-3.17-12.959-3.089l-.045.009a15.814,15.814,0,0,0-3.017-.314A7.433,7.433,0,0,0,32.99,20.56S18.5,14.588,19.169,28.067c.144,2.865,4.113,21.706,8.846,16.012,1.733-2.083,3.4-3.835,3.4-3.835a4.358,4.358,0,0,0,2.865.727l.081-.072a2.768,2.768,0,0,0,.036.808c-1.221,1.365-.862,1.6-3.3,2.1-2.47.512-1.015,1.41-.072,1.652a5.017,5.017,0,0,0,5.595-1.814l-.072.287c.476.386.449,2.748.512,4.445a15.956,15.956,0,0,0,.53,4.2c.341.934.754,3.323,3.951,2.64,2.667-.584,4.715-1.4,4.9-9.088Z" transform="translate(-17.473 -17.011)"/><path d="M23.54,39.886a4.2,4.2,0,0,1-2.981-1.114,5.673,5.673,0,0,1-1.419-2.5c-.036-.1-.063-.189-.081-.251a16.47,16.47,0,0,1-.629-4.715c-.009-.3-.018-.62-.027-.952-.009-.2-.009-.44-.018-.683a7.254,7.254,0,0,1-4.715.278,4.749,4.749,0,0,1-1.347-.566,3.357,3.357,0,0,1-.718-.611,3.427,3.427,0,0,1-3.395.736c-1.284-.431-2.425-1.616-3.493-3.637a32.388,32.388,0,0,1-2.164-5.514,52.579,52.579,0,0,1-2.012-9.34C.326,6.776,1.475,3.74,3.954,1.989,6,.543,8.794.1,12.261.669a22.828,22.828,0,0,1,3.547.889A9.393,9.393,0,0,1,20.828.319a19.317,19.317,0,0,1,2.883.26,16.9,16.9,0,0,1,4.93-.691,11.771,11.771,0,0,1,9.492,4.463c.853,1.087,1.581,3.484.216,8.756a38.87,38.87,0,0,1-4.1,9.753,12.363,12.363,0,0,0,2.012-.26,3.686,3.686,0,0,1,1.3-.072,1.966,1.966,0,0,1,1.634,1.32c.683,2.057-2.209,3.583-3.107,4.005a10.762,10.762,0,0,1-4.517.781l-.072-.009-.269-.027c-.009.072-.018.135-.027.207-.009.1-.027.207-.036.314-.1,3.915-.665,6.4-1.823,8.046a6.537,6.537,0,0,1-4.409,2.55A5.574,5.574,0,0,1,23.54,39.886ZM20.639,25.5c.961.763,1.042,2.164,1.114,4.778.009.314.018.62.027.907a16.962,16.962,0,0,0,.422,3.682c.045.126.09.242.126.377.35,1.069.494,1.509,1.9,1.2,1.239-.269,1.877-.5,2.371-1.194.727-1.042,1.141-3.152,1.212-6.277l1.679.045-1.67-.2c.018-.135.027-.26.045-.386.144-1.248.26-2.236,1.149-2.883a2.5,2.5,0,0,1,1.751-.4A2.246,2.246,0,0,1,30.132,24l-.144-.691.4-.584A35.135,35.135,0,0,0,35.1,12.308c1.024-3.96.575-5.64.4-5.873-3.727-4.769-10.22-2.82-10.938-2.586l-.126.072-.629.117-.323-.063a14.623,14.623,0,0,0-2.7-.278,5.776,5.776,0,0,0-3.727,1.087l-.763.584L15.395,5c-1.742-.709-6.843-2.137-9.51-.251-1.473,1.042-2.146,3.1-1.994,6.125a50.5,50.5,0,0,0,1.931,8.738c1.607,5.182,3.026,6.619,3.431,6.735a1.447,1.447,0,0,0,.512-.458c1.742-2.1,3.4-3.853,3.475-3.924l.97-1.024,1.176.781a2.822,2.822,0,0,0,1.3.467l2.784-2.38-.4,4.14a1.555,1.555,0,0,0,.018.386l.126.781-.53.593-.018.018,1.3.6Z" transform="translate(-0.516 0.114)"/></g><path class="b" d="M53.564,41.366c-4.517.934-4.831-.6-4.831-.6C53.5,33.687,55.5,24.707,53.78,22.507c-4.7-5.99-12.824-3.161-12.959-3.08l-.045.009a15.814,15.814,0,0,0-3.017-.314,7.433,7.433,0,0,0-4.769,1.428S18.5,14.577,19.169,28.057c.144,2.865,4.113,21.706,8.846,16.012,1.733-2.083,3.4-3.835,3.4-3.835a4.358,4.358,0,0,0,2.865.727l.081-.072a2.768,2.768,0,0,0,.036.808c-1.221,1.365-.862,1.6-3.3,2.1-2.47.512-1.015,1.41-.072,1.652a5.017,5.017,0,0,0,5.595-1.814l-.072.287c.476.386.817,2.488.754,4.4a12.407,12.407,0,0,0,.278,4.248c.377,1.024.754,3.323,3.951,2.64,2.676-.575,4.068-2.057,4.257-4.544.135-1.76.449-1.5.467-3.08l.251-.745c.287-2.389.045-3.161,1.7-2.8l.4.036a9.208,9.208,0,0,0,3.736-.629c2-.934,3.188-2.488,1.212-2.083Z" transform="translate(-17.427 -17.114)"/><g transform="translate(1.127 0.973)"><path class="c" d="M49.058,35.17c-.171-.521-.727-.691-1.643-.494-2.739.566-3.718.171-4.032-.063A37.888,37.888,0,0,0,48.2,23.81a20.888,20.888,0,0,0,.718-4.643,5.078,5.078,0,0,0-.727-3.143,10.668,10.668,0,0,0-8.639-4.032,14.748,14.748,0,0,0-4.993.79,12.457,12.457,0,0,0-2.811-.359,8.1,8.1,0,0,0-4.814,1.329,20.016,20.016,0,0,0-3.933-1.042c-3.17-.512-5.694-.126-7.49,1.149-2.146,1.518-3.134,4.239-2.946,8.073A50.71,50.71,0,0,0,14.528,31c1.527,5.011,3.188,7.84,4.939,8.424a2.12,2.12,0,0,0,.7.117A2.937,2.937,0,0,0,22.4,38.277c1.347-1.625,2.613-2.99,3.08-3.484a4.959,4.959,0,0,0,2.218.593.175.175,0,0,0,.009.063c-.153.18-.278.341-.386.485-.539.683-.647.817-2.371,1.176-.494.1-1.787.368-1.814,1.284-.018,1,1.536,1.419,1.715,1.455a7.46,7.46,0,0,0,1.787.233,5.207,5.207,0,0,0,3.574-1.338c-.027,3.556.117,7.05.548,8.118a4.082,4.082,0,0,0,3.9,3.008,5.947,5.947,0,0,0,1.311-.153c2.811-.6,4.032-1.85,4.508-4.589.251-1.464.683-4.966.889-6.843a5.506,5.506,0,0,0,1.581.2,9.6,9.6,0,0,0,3.6-.683C47.558,37.334,49.39,36.176,49.058,35.17Zm-6.7-12.68a11.2,11.2,0,0,1-.171,1.581,13.424,13.424,0,0,0-.2,1.859,15.024,15.024,0,0,0,.144,2.1A7.5,7.5,0,0,1,41.81,32.3a4.825,4.825,0,0,1-.3-.611c-.081-.2-.26-.521-.512-.97-.97-1.742-3.251-5.828-2.083-7.49C39.269,22.723,40.149,22.211,42.358,22.49ZM39.682,13.1A9.448,9.448,0,0,1,47.3,16.7c1.392,1.778-.144,9.869-4.58,16.856-.045-.054-.09-.108-.135-.171-.018-.027-.036-.045-.054-.072a7.826,7.826,0,0,0,.718-5.424,13.508,13.508,0,0,1-.144-1.931,13.5,13.5,0,0,1,.189-1.724,10.431,10.431,0,0,0,.171-2.128,1.009,1.009,0,0,0,.018-.3,11.931,11.931,0,0,0-2.73-5.137,12.337,12.337,0,0,0-4.338-3.26A14.426,14.426,0,0,1,39.682,13.1ZM21.551,37.559c-.9,1.078-1.518.871-1.715.8-1.329-.44-2.865-3.242-4.221-7.687a49.826,49.826,0,0,1-1.913-8.8c-.171-3.431.656-5.819,2.47-7.1,2.946-2.092,7.8-.835,9.744-.207l-.081.081c-3.2,3.224-3.116,8.738-3.107,9.079q0,.189.027.566a22.531,22.531,0,0,1-.117,4.607,5.835,5.835,0,0,0,1.536,4.876,5.185,5.185,0,0,0,.4.377C24,34.739,22.817,36.032,21.551,37.559Zm3.413-4.553a4.725,4.725,0,0,1-1.239-3.951,24.236,24.236,0,0,0,.126-4.831c-.009-.135-.018-.251-.018-.35.467-.413,2.631-1.572,4.176-1.221a1.7,1.7,0,0,1,1.311,1.464c.925,4.266.126,6.044-.521,7.481-.135.3-.26.575-.368.862l-.081.225c-.207.566-.4,1.087-.53,1.581A3.984,3.984,0,0,1,24.963,33.006Zm.162,5.756a2.43,2.43,0,0,1-.745-.323,3.428,3.428,0,0,1,.8-.233c2.03-.413,2.335-.709,3.026-1.581.153-.2.332-.422.584-.7h0c.368-.413.53-.341.835-.216a1.2,1.2,0,0,1,.584.754.83.83,0,0,1-.072.7A4.464,4.464,0,0,1,25.125,38.762Zm10.606,9.86c-2.479.53-3.359-.736-3.933-2.182-.377-.934-.557-5.146-.422-9.789a.579.579,0,0,0-.027-.18,2.461,2.461,0,0,0-.072-.332,2.277,2.277,0,0,0-1.23-1.473,1.764,1.764,0,0,0-1.132-.135,14.588,14.588,0,0,1,.485-1.464l.081-.225c.09-.251.216-.512.332-.79.674-1.5,1.6-3.547.593-8.172a2.915,2.915,0,0,0-3.52-2.38,7.856,7.856,0,0,0-2.694.844c-.108.054-.216.108-.305.162.144-1.751.691-5.011,2.739-7.077a6.724,6.724,0,0,1,5.1-1.9,10.854,10.854,0,0,1,8.262,3.942A12.671,12.671,0,0,1,42.25,21.34c-2.092-.216-3.511.2-4.23,1.23-1.572,2.236.853,6.592,2.021,8.675.216.386.4.718.458.853a7.786,7.786,0,0,0,1.23,1.985c.108.135.216.269.3.386-.629.18-1.769.6-1.661,2.712-.081,1.06-.674,6.008-.979,7.759C38.964,47.249,38.119,48.111,35.731,48.623ZM46.067,36.787a8.184,8.184,0,0,1-2.757.575,3.351,3.351,0,0,1-1.85-.242c-.063-1.311.422-1.446.943-1.6.081-.027.162-.045.233-.072.045.036.1.081.153.117.916.6,2.541.665,4.84.2a.033.033,0,0,0,.027-.009A5.889,5.889,0,0,1,46.067,36.787Z" transform="translate(-12.547 -11.991)"/><path class="c" d="M172.525,137.655c.045-.359-.467-.593-.961-.665a1.46,1.46,0,0,0-.961.135.339.339,0,0,0-.144.234.632.632,0,0,0,.171.449,1.242,1.242,0,0,0,.8.494.636.636,0,0,0,.126.009A.988.988,0,0,0,172.525,137.655Z" transform="translate(-156.275 -125.746)"/><path class="c" d="M312.769,133.9c-.467.063-.925.278-.889.557a.95.95,0,0,0,.889.584.512.512,0,0,0,.117-.009,1.21,1.21,0,0,0,.647-.35.722.722,0,0,0,.242-.494h0C313.73,133.913,313.236,133.833,312.769,133.9Z" transform="translate(-284.997 -122.93)"/></g><path class="d" d="M0,60.2" transform="translate(0 -54.897)"/></g></g></svg>