<svg xmlns="http://www.w3.org/2000/svg" xmlns:xlink="http://www.w3.org/1999/xlink" width="40" height="40" viewBox="0 0 40 40"><defs><style>.a{fill:none;}.b{fill:url(#a);}.c{fill:url(#b);}</style><linearGradient id="a" x1="4.756" y1="-1.839" x2="6.08" y2="-2.968" gradientUnits="objectBoundingBox"><stop offset="0" stop-color="#5a9fd4"/><stop offset="1" stop-color="#306998"/></linearGradient><linearGradient id="b" x1="6.231" y1="-3.966" x2="5.759" y2="-3.308" gradientUnits="objectBoundingBox"><stop offset="0" stop-color="#ffd43b"/><stop offset="1" stop-color="#ffe873"/></linearGradient></defs><g transform="translate(-747 -4929)"><rect class="a" width="40" height="40" transform="translate(747 4929)"/><g transform="translate(-14.781 -5.609)"><path class="b" d="M19.546,3.135a27.3,27.3,0,0,0-4.56.389c-4.038.714-4.771,2.207-4.771,4.961v3.637h9.543v1.213H6.634A5.958,5.958,0,0,0,.672,18.172a17.836,17.836,0,0,0,0,9.7c.678,2.825,2.3,4.838,5.072,4.838H9.025v-4.36a6.064,6.064,0,0,1,5.961-5.928h9.532a4.808,4.808,0,0,0,4.771-4.849V8.485c0-2.586-2.182-4.529-4.771-4.961a29.769,29.769,0,0,0-4.972-.389ZM14.385,6.06a1.819,1.819,0,1,1-1.791,1.824A1.819,1.819,0,0,1,14.385,6.06Z" transform="translate(762 4931.475)"/><path class="c" d="M48.964,31.793v4.238A6.12,6.12,0,0,1,43,42.081H33.471A4.868,4.868,0,0,0,28.7,46.93v9.087c0,2.586,2.249,4.107,4.771,4.849a15.964,15.964,0,0,0,9.532,0c2.4-.7,4.771-2.1,4.771-4.849V52.379H38.243V51.167h14.3c2.773,0,3.808-1.934,4.771-4.838,1-2.99.954-5.863,0-9.7-.685-2.761-1.993-4.838-4.771-4.838ZM43.6,54.8a1.8,1.8,0,1,1-1.271.535A1.819,1.819,0,0,1,43.6,54.8Z" transform="translate(743.514 4913.016)"/></g></g></svg>