<svg xmlns="http://www.w3.org/2000/svg" width="40" height="40" viewBox="0 0 40 40"><defs><style>.a{fill:none;}.b{fill:#70e1fc;}</style></defs><g transform="translate(-155 -4586)"><rect class="a" width="40" height="40" transform="translate(155 4586)"/><g transform="translate(155 4588.195)"><circle class="b" cx="3.605" cy="3.605" r="3.605" transform="translate(16.395 14.199)"/><path class="b" d="M20,28.6A36.8,36.8,0,0,1,33.513,30.88c3.025,1.242,4.831,2.839,4.831,4.273s-1.806,3.032-4.831,4.273A36.8,36.8,0,0,1,20,41.708,36.8,36.8,0,0,1,6.487,39.427c-3.025-1.242-4.831-2.839-4.831-4.273s1.806-3.032,4.831-4.273A36.8,36.8,0,0,1,20,28.6Zm0-1.656c-11.046,0-20,3.676-20,8.21s8.954,8.21,20,8.21,20-3.676,20-8.21S31.046,26.944,20,26.944Z" transform="translate(0 -17.349)"/><path class="b" d="M39.652,14.527A36.8,36.8,0,0,1,44.434,27.37c.437,3.24-.044,5.6-1.286,6.32s-3.529-.048-6.116-2.047A36.8,36.8,0,0,1,28.3,21.081,36.8,36.8,0,0,1,23.519,8.238c-.437-3.24.044-5.6,1.286-6.32s3.529.048,6.116,2.047A36.8,36.8,0,0,1,39.652,14.527Zm1.434-.828C35.564,4.133,27.9-1.783,23.976.484s-2.633,11.86,2.89,21.426S40.05,37.392,43.976,35.125s2.633-11.86-2.89-21.426Z" transform="translate(-13.976 0)"/><path class="b" d="M39.652,21.081a36.8,36.8,0,0,1-8.732,10.563c-2.588,2-4.874,2.764-6.116,2.047s-1.723-3.08-1.286-6.32A36.8,36.8,0,0,1,28.3,14.527,36.8,36.8,0,0,1,37.032,3.965c2.588-2,4.874-2.764,6.116-2.047S44.871,5,44.434,8.238A36.8,36.8,0,0,1,39.652,21.081Zm1.434.828C46.609,12.344,47.9,2.751,43.976.484S32.389,4.133,26.866,13.7s-6.817,19.158-2.89,21.426,11.587-3.65,17.11-13.215Z" transform="translate(-13.976 0)"/></g></g></svg>