<svg xmlns="http://www.w3.org/2000/svg" width="40" height="40" viewBox="0 0 40 40"><defs><style>.a{fill:none;}.b{fill:#3ba1d9;}</style></defs><g transform="translate(-747 -5548)"><rect class="a" width="40" height="40" transform="translate(747 5548)"/><g transform="translate(748.402 5548)"><path class="b" d="M0,0,7.179,5.877H28.715s-3.261,3.918-6.522,3.918H1.959v15H8.481V15.66H15L26.1,24.8h9.783L24.8,15.66A15.98,15.98,0,0,0,37.2,0Z"/><path class="b" d="M10.2,241.474a6.14,6.14,0,0,1-.979.608,5.91,5.91,0,0,1-1.141.4,5.3,5.3,0,0,1-1.327.136,5.33,5.33,0,0,1-3.906-1.637,5.553,5.553,0,0,1-1.141-1.785,6.109,6.109,0,0,1-.409-2.207v-.025a6,6,0,0,1,.409-2.195,5.742,5.742,0,0,1,1.141-1.81,5.276,5.276,0,0,1,3.918-1.661,6.774,6.774,0,0,1,1.327.124,4.792,4.792,0,0,1,1.1.36,6.63,6.63,0,0,1,.955.558,9.783,9.783,0,0,1,.868.707l-.583.6a7.664,7.664,0,0,0-.756-.645,4.8,4.8,0,0,0-1.81-.843,4.994,4.994,0,0,0-1.128-.124,4.481,4.481,0,0,0-3.3,1.413A4.854,4.854,0,0,0,2.478,235a5.119,5.119,0,0,0-.347,1.922v.037a5.2,5.2,0,0,0,.36,1.934,4.757,4.757,0,0,0,.979,1.562,4.434,4.434,0,0,0,3.3,1.438,4.742,4.742,0,0,0,2.071-.434,7.115,7.115,0,0,0,1.711-1.265l.546.533A10.911,10.911,0,0,1,10.2,241.474Z" transform="translate(-1.139 -202.617)"/><path class="b" d="M106.3,243.552l-3.5-4.538H99.218v4.538H98.4v-10.96H103a5.443,5.443,0,0,1,1.612.223,3.535,3.535,0,0,1,1.227.645,3.008,3.008,0,0,1,.794.979,2.779,2.779,0,0,1,.285,1.265v.025a2.845,2.845,0,0,1-.918,2.157,3.332,3.332,0,0,1-1.017.632,4.972,4.972,0,0,1-1.277.335l3.62,4.687H106.3Zm-.186-7.811a2.122,2.122,0,0,0-.818-1.761,3.7,3.7,0,0,0-2.331-.645H99.218v4.947h3.695a4.469,4.469,0,0,0,1.277-.174,3.228,3.228,0,0,0,1.017-.5,2.525,2.525,0,0,0,.67-.781,2.272,2.272,0,0,0,.236-1.066Z" transform="translate(-86.2 -203.752)"/><path class="b" d="M199.322,243.56v-9.522l-4.34,6.311h-.062l-4.34-6.311v9.522H189.8V232.6h.769l4.4,6.484,4.4-6.485h.769v10.96Z" transform="translate(-166.267 -203.761)"/></g></g></svg>