<svg xmlns="http://www.w3.org/2000/svg" width="40" height="40" viewBox="0 0 40 40"><defs><style>.a{fill:none;}.b{fill:#95bf47;}.c{fill:#5e8e3e;}.d{fill:#fff;}</style></defs><g transform="translate(-155 -5184)"><rect class="a" width="40" height="40" transform="translate(155 5184)"/><g transform="translate(157.409 5184)"><path class="b" d="M30.8,7.8a.363.363,0,0,0-.344-.315c-.143,0-3.211-.229-3.211-.229S25.118,5.133,24.86,4.9A.954.954,0,0,0,24,4.789c-.029,0-.459.143-1.2.373-.717-2.093-1.978-3.986-4.186-3.986h-.2A2.7,2.7,0,0,0,16.344,0c-5.161,0-7.627,6.452-8.4,9.72-2.007.631-3.441,1.061-3.613,1.118-1.118.344-1.147.373-1.29,1.434C2.925,13.075,0,35.728,0,35.728L22.8,40l12.358-2.667C35.154,37.3,30.824,8,30.8,7.8ZM21.534,5.505c-.573.172-1.233.373-1.921.6v-.43a9.6,9.6,0,0,0-.459-3.125c1.147.172,1.892,1.462,2.38,2.953ZM17.72,2.839a9.6,9.6,0,0,1,.516,3.47v.229c-1.262.4-2.609.8-3.986,1.233C15.025,4.817,16.487,3.384,17.72,2.839ZM16.2,1.376a1.149,1.149,0,0,1,.659.229C15.2,2.38,13.448,4.33,12.7,8.258c-1.09.344-2.151.659-3.154.975C10.409,6.251,12.5,1.376,16.2,1.376Z"/><path class="c" d="M87.227,19.224c-.143,0-3.211-.229-3.211-.229s-2.122-2.122-2.38-2.351a.461.461,0,0,0-.315-.143L79.6,51.769,91.958,49.1S87.629,19.769,87.6,19.568A.5.5,0,0,0,87.227,19.224Z" transform="translate(-56.776 -11.769)"/><path class="d" d="M32.019,48.371,30.5,52.9a7.066,7.066,0,0,0-2.982-.717c-2.409,0-2.523,1.52-2.523,1.892,0,2.065,5.391,2.867,5.391,7.713,0,3.814-2.409,6.28-5.677,6.28A7.833,7.833,0,0,1,18.8,65.633l1.061-3.47s2.065,1.778,3.785,1.778a1.53,1.53,0,0,0,1.606-1.548c0-2.7-4.416-2.81-4.416-7.254,0-3.728,2.667-7.341,8.086-7.341A6.4,6.4,0,0,1,32.019,48.371Z" transform="translate(-13.409 -34.091)"/></g></g></svg>