<svg xmlns="http://www.w3.org/2000/svg" width="40" height="40" viewBox="0 0 40 40"><defs><style>.a{fill:#31b4e7;}.b{fill:#fff;}</style></defs><rect class="a" width="40" height="40" rx="20"/><g transform="translate(3.254 14.953)"><path class="b" d="M70.186,90.542a1.516,1.516,0,1,1-.005-1.389l.014.027h.99l-.021-.066a2.442,2.442,0,1,0,0,1.467l.02-.066H70.2Z" transform="translate(-56.369 -84.882)"/><path class="b" d="M138.746,105.386a.614.614,0,0,0-.006,1.227h.019a.6.6,0,0,0,.62-.579v-.04a.608.608,0,0,0-.607-.609Z" transform="translate(-113.758 -99.261)"/><path class="b" d="M18.543,89.543l-.09-.029c-.509-.163-.949-.3-.949-.619v-.018c0-.27.251-.445.64-.445a2.694,2.694,0,0,1,1.3.437l.011.007.435-.78-.01-.006a3.245,3.245,0,0,0-1.715-.53,1.494,1.494,0,0,0-1.668,1.43v.018c0,.89.754,1.177,1.462,1.377l.11.033c.494.149.92.279.92.606v.017c0,.306-.265.489-.709.489a2.633,2.633,0,0,1-1.516-.57l-.011-.008-.484.735-.006.01.009.007a3.266,3.266,0,0,0,1.98.7c1.072,0,1.738-.565,1.738-1.474v-.017C20,90.107,19.3,89.778,18.543,89.543Z" transform="translate(-16.268 -85.001)"/><path class="b" d="M39.645,82.124H38.6v1.252h-.578v.9H38.6v2.4a1.169,1.169,0,0,0,1.311,1.338,1.806,1.806,0,0,0,.94-.233v-.854a1.406,1.406,0,0,1-.647.155.5.5,0,0,1-.56-.57V84.272h1.226v-.9H39.645Z" transform="translate(-33.672 -80.652)"/><path class="b" d="M58.466,88.374H57.422v4.557h1.044Z" transform="translate(-49.191 -85.652)"/><path class="b" d="M98.258,81.394H96.989l-1.89,2.02V79.651H94.055v6.3H95.1v-1.3l.647-.673,1.347,1.976h1.225l-1.872-2.7Z" transform="translate(-78.498 -78.673)"/><path class="b" d="M119.955,88.369l-1.182,3.384-1.286-3.384h-1.122l1.9,4.566c-.173.388-.353.518-.647.518a1.287,1.287,0,0,1-.613-.173l-.353.776a2.151,2.151,0,0,0,1.079.276c.734,0,1.14-.346,1.5-1.278l1.812-4.687h-1.088Z" transform="translate(-96.346 -85.647)"/><path class="b" d="M56.3,74.764a.914.914,0,0,0-.915.912v0a.908.908,0,0,0,.9.92h.038a.9.9,0,0,0,.927-.865v-.06a.907.907,0,0,0-.9-.911Z" transform="translate(-47.559 -74.763)"/><path class="b" d="M150.717,88.407h-1.044v4.557h1.044Z" transform="translate(-122.992 -85.678)"/><path class="b" d="M148.578,117.45a.917.917,0,0,0,0-1.834h-.02a.9.9,0,0,0-.927.865v.059a.908.908,0,0,0,.905.91Z" transform="translate(-121.358 -107.446)"/><path class="b" d="M161.494,87.665a2.423,2.423,0,0,0-2.476,2.37v.07a2.4,2.4,0,0,0,2.4,2.4h.061a2.424,2.424,0,0,0,2.484-2.362v-.07a2.4,2.4,0,0,0-2.4-2.406Zm1.4,2.44a1.39,1.39,0,0,1-1.4,1.466,1.428,1.428,0,0,1-1.414-1.443v-.058a1.391,1.391,0,0,1,1.4-1.475,1.433,1.433,0,0,1,1.423,1.442q0,.025,0,.05v.017Z" transform="translate(-130.468 -85.084)"/></g></svg>