<?xml version="1.0" encoding="UTF-8"?><svg id="Layer_2" xmlns="http://www.w3.org/2000/svg" xmlns:xlink="http://www.w3.org/1999/xlink" viewBox="0 0 201.809 234.246"><defs><style>.cls-1{fill:url(#linear-gradient);}</style><linearGradient id="linear-gradient" x1="100.905" y1="234.246" x2="100.905" y2="0" gradientUnits="userSpaceOnUse"><stop offset="0" stop-color="#fe7782"/><stop offset="1" stop-color="#560088"/></linearGradient></defs><g id="Layer_1-2"><path class="cls-1" d="M121.314,16c9.746,0,19.627,1.537,29.088,4.178,27.364,7.637,35.16,27.205,29.273,33.092-5.886,5.886-36.592,36.274-36.592,36.274,0,0,5.456,2.044,20.258,7.743,26.947,10.375,26.304,45.183,15.485,56.001s-47.092,47.304-53.88,52.395c-5.287,3.966-20.352,12.564-45.203,12.564-7.053,0-14.898-.693-23.526-2.381-39.031-7.637-44.817-28.431-37.452-35.796,7.366-7.366,35.383-36.91,35.383-36.91,0,0-12.887-2.227-25.614-14.319-12.728-12.091-13.046-37.705-.795-49.956s22.432-22.114,43.433-43.433c13.739-13.948,31.7-19.451,50.141-19.451m0-16c-24.649,0-45.929,8.376-61.539,24.223-14.313,14.53-23.67,23.806-31.926,31.99-3.875,3.842-7.536,7.471-11.423,11.357-8.862,8.862-13.839,22.156-13.655,36.474,.185,14.403,5.559,27.669,14.744,36.395,3.248,3.086,6.52,5.672,9.682,7.835-7.748,8.12-16.234,16.97-19.744,20.48-6.92,6.92-9.197,17.132-6.09,27.317,2.564,8.404,8.586,16.067,17.415,22.162,8.867,6.12,20.43,10.606,34.368,13.333,9.086,1.778,18.035,2.679,26.598,2.679,31.349,0,49.872-12.066,54.803-15.764,5.121-3.841,19.776-18.015,52.269-50.553l3.325-3.328c9.811-9.811,13.988-27.791,10.394-44.742-3.508-16.546-13.872-29.631-28.637-36.329,7.99-7.915,16.28-16.135,19.092-18.946,5.952-5.952,7.967-14.693,5.529-23.983-2.01-7.659-6.826-15.019-13.927-21.283-7.447-6.569-16.83-11.464-27.889-14.551-11.334-3.163-22.567-4.767-33.389-4.767h0Z"/></g></svg>