<svg xmlns="http://www.w3.org/2000/svg" width="40" height="40" viewBox="0 0 40 40"><defs><style>.a{fill:#1a171b;}</style></defs><path class="a" d="M20,0A20,20,0,1,0,40,20,20,20,0,0,0,20,0ZM30.781,11.573a1.4,1.4,0,0,1-1.59-1.362,1.435,1.435,0,0,1,.277-.894c.21-.4.253-.45.246-.622-.018-.53-.82-.555-1.035-.542-3,.1-3.8,4.153-4.437,7.444l-.314,1.738a5.38,5.38,0,0,0,3.642-.5c.961-.622-.271-1.269-.117-1.978A1.417,1.417,0,0,1,28.8,13.767a1.379,1.379,0,0,1,1.239,1.516c-.025,1.276-1.719,3.032-5.109,2.958a10.793,10.793,0,0,1-1.146-.08l-.641,3.531c-.573,2.674-1.331,6.323-4.055,9.509-2.336,2.779-4.708,3.217-5.768,3.248-1.99.068-3.309-.992-3.358-2.4A2.119,2.119,0,0,1,11.924,29.9a1.7,1.7,0,0,1,1.824,1.621,1.075,1.075,0,0,1-.629,1.122c-.173.142-.431.283-.419.592a.517.517,0,0,0,.585.425,3.127,3.127,0,0,0,1.787-.727c1.941-1.615,2.687-4.425,3.66-9.539l.2-1.245c.333-1.664.7-3.519,1.263-5.367-1.362-1.029-2.181-2.3-4.018-2.8a2.186,2.186,0,0,0-2.564.635,1.86,1.86,0,0,0,.191,2.477l1.017,1.122c1.251,1.448,1.935,2.57,1.676,4.086-.407,2.409-3.285,4.264-6.68,3.217-2.9-.894-3.445-2.946-3.1-4.079A1.367,1.367,0,0,1,8.6,20.484a1.63,1.63,0,0,1,.918,2.04,2.946,2.946,0,0,1-.154.407,4.974,4.974,0,0,0-.351.647c-.191.61.647,1.041,1.226,1.22a2.269,2.269,0,0,0,2.884-1.331,1.849,1.849,0,0,0-.567-1.9L11.326,20.25a4.723,4.723,0,0,1-1.2-4.332,4.2,4.2,0,0,1,1.436-2.089,5.176,5.176,0,0,1,4.683-.857c2.015.579,2.983,1.91,4.234,2.939a17.163,17.163,0,0,1,3.137-5.768A7.148,7.148,0,0,1,28.741,7.4c2.034-.068,3.568.85,3.617,2.3a1.725,1.725,0,0,1-1.578,1.867Z"/></svg>