<svg xmlns="http://www.w3.org/2000/svg" width="40" height="40" viewBox="0 0 40 40"><defs><style>.a{fill:#fff;}.b{fill:#3178c6;fill-rule:evenodd;}</style></defs><g transform="translate(-451 -4674)"><rect class="a" width="40" height="40" transform="translate(451 4674)"/><g transform="translate(451 4674.225)"><path class="b" d="M1.5,0h37A1.492,1.492,0,0,1,40,1.483V38.068a1.492,1.492,0,0,1-1.5,1.483H1.5A1.492,1.492,0,0,1,0,38.068V1.483A1.492,1.492,0,0,1,1.5,0ZM22.237,21.041V17.8H8v3.243h5.082V35.485h4.046V21.041ZM23.849,35.1a8.61,8.61,0,0,0,2.315.739,15.523,15.523,0,0,0,2.817.246,13.372,13.372,0,0,0,2.741-.271A6.791,6.791,0,0,0,34,34.924,4.605,4.605,0,0,0,35.55,33.3a5.643,5.643,0,0,0,.243-4.366,4.386,4.386,0,0,0-.942-1.438,6.872,6.872,0,0,0-1.474-1.129,15.671,15.671,0,0,0-1.938-.943q-.792-.322-1.418-.624a7.232,7.232,0,0,1-1.066-.616,2.714,2.714,0,0,1-.677-.666,1.389,1.389,0,0,1-.239-.8,1.318,1.318,0,0,1,.213-.733,1.838,1.838,0,0,1,.6-.561,3.25,3.25,0,0,1,.954-.364,5.592,5.592,0,0,1,1.255-.129,7.945,7.945,0,0,1,1.06.075,8.744,8.744,0,0,1,1.123.228,8.18,8.18,0,0,1,1.1.388,6.109,6.109,0,0,1,.984.543V18.478a9.982,9.982,0,0,0-2-.513,16.577,16.577,0,0,0-2.49-.166,11.721,11.721,0,0,0-2.711.3,6.956,6.956,0,0,0-2.253.943,4.543,4.543,0,0,0-2.1,4.008,4.548,4.548,0,0,0,1.036,3.009,7.891,7.891,0,0,0,3.143,2.11q.828.333,1.544.654a8.613,8.613,0,0,1,1.235.666,3.2,3.2,0,0,1,.821.753,1.517,1.517,0,0,1,.3.925,1.386,1.386,0,0,1-.189.709,1.667,1.667,0,0,1-.57.567,3.152,3.152,0,0,1-.954.376,5.863,5.863,0,0,1-1.336.135,7.79,7.79,0,0,1-4.956-1.8V35.1Z"/></g></g></svg>