<svg xmlns="http://www.w3.org/2000/svg" width="40" height="40" viewBox="0 0 40 40"><defs><style>.a{fill:#7f54b3;}.b{fill:#fff;}</style></defs><g transform="translate(-1107 -3697)"><rect class="a" width="40" height="40" transform="translate(1107 3697)"/><path class="b" d="M1113.5,3705.8a2.136,2.136,0,0,1,1.7-.8,1.952,1.952,0,0,1,2.3,1.6v.4c.8,5.7,1.8,10.5,2.7,14.4l5.9-11.3a2.375,2.375,0,0,1,2-1.6c1.2-.1,1.9.7,2.2,2.3a49.328,49.328,0,0,0,2.6,9.3c.7-6.9,1.9-11.9,3.6-14.9a1.976,1.976,0,0,1,1.8-1.2,2.155,2.155,0,0,1,1.7.5,1.9,1.9,0,0,1,.8,1.5,2.768,2.768,0,0,1-.3,1.3c-1.1,2-1.9,5.2-2.6,9.8a51.11,51.11,0,0,0-.8,10.3,2.885,2.885,0,0,1-.3,1.8,1.806,1.806,0,0,1-1.4,1,2.814,2.814,0,0,1-2.1-1c-2.5-2.6-4.5-6.4-6-11.6q-2.7,5.25-3.9,7.8c-1.6,3.1-3,4.6-4.1,4.7-.7.1-1.4-.6-1.9-1.9-1.4-3.6-2.9-10.4-4.5-20.6A3,3,0,0,1,1113.5,3705.8Z"/></g></svg>