<svg xmlns="http://www.w3.org/2000/svg" width="40" height="40" viewBox="0 0 40 40"><defs><style>.a{fill:#32373c;}</style></defs><path class="a" d="M20,1.2a18.767,18.767,0,1,1-7.317,1.477A18.707,18.707,0,0,1,20,1.2M20,0A20,20,0,1,0,40,20,20,20,0,0,0,20,0Z"/><path class="a" d="M55.556,72.221a16.668,16.668,0,0,0,9.394,15L57,65.439a16.6,16.6,0,0,0-1.443,6.783Zm27.918-.841a8.777,8.777,0,0,0-1.374-4.6c-.845-1.374-1.637-2.536-1.637-3.909a2.886,2.886,0,0,1,2.8-2.958c.074,0,.144.009.216.014A16.663,16.663,0,0,0,58.3,63.067c.391.012.76.02,1.073.02,1.743,0,4.442-.212,4.442-.212a.689.689,0,0,1,.107,1.373s-.9.106-1.907.158L68.08,82.46l3.648-10.939-2.6-7.114c-.9-.053-1.748-.158-1.748-.158a.689.689,0,0,1,.106-1.373s2.752.212,4.389.212c1.743,0,4.443-.212,4.443-.212a.689.689,0,0,1,.106,1.373s-.9.106-1.907.158l6.023,17.916,1.719-5.448A19.215,19.215,0,0,0,83.474,71.381Zm-10.959,2.3-5,14.53a16.674,16.674,0,0,0,10.244-.266,1.521,1.521,0,0,1-.12-.23Zm14.333-9.453a12.8,12.8,0,0,1,.112,1.714,15.733,15.733,0,0,1-1.268,5.969L80.6,86.627a16.669,16.669,0,0,0,6.246-22.4Z" transform="translate(-52.222 -52.222)"/></svg>